<?xml version="1.0" encoding="UTF-8"?>
<svg width="34px" height="34px" viewBox="0 0 34 34" version="1.1" xmlns="http://www.w3.org/2000/svg" xmlns:xlink="http://www.w3.org/1999/xlink">
    <!-- Generator: Sketch 59 (86127) - https://sketch.com -->
    <title>B-Copy-13</title>
    <desc>Created with Sketch.</desc>
    <g id="首页/登陆注册/用户面板" stroke="none" stroke-width="1" fill="none" fill-rule="evenodd">
        <g id="移动端-首页" transform="translate(-20.000000, -620.000000)" fill="#FFFFFF" fill-rule="nonzero">
            <g id="下载引导备份" transform="translate(0.000000, 597.000000)">
                <g id="ViaBTC-logo" transform="translate(20.000000, 23.000000)">
                    <g id="B-Copy-13">
                        <path d="M26.9875,7.62867384 L26.875,7.76272401 L26.7625,7.64086022 C24.5875,5.42293907 21.7625,4.009319 18.6375,3.63154122 L18.5,3.61935484 L18.5,0.0731182796 L18.6625,0.0853046595 C23.1125,0.536200717 27.125,2.62007168 29.975,5.89820789 L30.1625,6.11756272 L29.875,6.14193548 C28.7375,6.22724014 27.7,6.76344086 26.9875,7.62867384 Z" id="Shape_4_"></path>
                        <path d="M33.2875,12.8078853 L33.475,12.6007168 L33.5375,12.8688172 C33.825,14.0387097 33.975,15.2695341 33.975,16.5734767 C33.975,19.1326165 33.35,21.6673835 32.175,23.9462366 L32.1,24.0924731 L29.125,22.0573477 L29.175,21.9476703 C29.9625,20.3146953 30.3875,18.4623656 30.3875,16.5734767 C30.3875,15.8179211 30.325,15.0867384 30.1875,14.3433692 L30.1625,14.1849462 L30.3375,14.1727599 C31.5,14.111828 32.55,13.6243728 33.2875,12.8078853 Z" id="Shape_5_"></path>
                        <path d="M3.625,16.5734767 C3.625,18.4623656 4.0375,20.3146953 4.8375,21.9476703 L4.8875,22.0573477 L1.9,24.0924731 L1.825,23.9462366 C0.6375,21.7039427 0.025,19.2057348 0.025,16.5734767 C0.025,15.4401434 0.15,14.30681 0.3875,13.1612903 L0.4375,12.9053763 L0.6375,13.0759857 C1.4,13.7584229 2.4375,14.1605735 3.475,14.1605735 L3.85,14.1605735 L3.825,14.3311828 C3.6875,15.0867384 3.625,15.8179211 3.625,16.5734767 Z" id="Shape_6_"></path>
                        <path d="M7.0875,7.82365591 L6.9625,7.95770609 L6.85,7.81146953 C6.2,6.93405018 5.2125,6.3125448 4.1125,6.1297491 L3.85,6.09318996 L4.0125,5.89820789 C6.8375,2.6078853 10.9,0.499641577 15.3375,0.0853046595 L15.5,0.0731182796 L15.5,3.61935484 L15.3625,3.63154122 C12.175,4.009319 9.2125,5.52043011 7.0875,7.82365591 Z" id="Shape_7_"></path>
                        <path d="M6.4375,24.5799283 L6.525,24.6896057 C8.2375,26.7856631 10.575,28.321147 13.175,29.0767025 L13.3375,29.125448 L13.2625,29.283871 C13,29.8322581 12.85,30.4537634 12.85,31.0508961 C12.85,31.5261649 12.9375,31.9892473 13.1,32.4523297 L13.2,32.7082437 L12.925,32.6473118 C9.175,31.7455197 5.875,29.637276 3.575,26.7125448 L3.475,26.590681 L6.4375,24.5799283 Z" id="Shape_8_"></path>
                        <path d="M20.725,29.283871 L20.65,29.125448 L20.8125,29.0767025 C23.425,28.321147 25.75,26.7856631 27.4625,24.6896057 L27.55,24.5799283 L30.5,26.5784946 L30.4,26.7003584 C28.075,29.6250896 24.7625,31.7455197 21.05,32.6351254 L20.775,32.6960573 L20.875,32.4401434 C21.0375,31.9770609 21.125,31.5139785 21.125,31.0387097 C21.1375,30.4537634 20.9875,29.8322581 20.725,29.283871 Z" id="Shape_9_"></path>
                        <path d="M30.2,13.0394265 C28.5625,13.0394265 27.225,11.7476703 27.225,10.1390681 C27.225,8.53046595 28.55,7.23870968 30.2,7.23870968 C31.8375,7.23870968 33.175,8.53046595 33.175,10.1390681 C33.175,11.7476703 31.8375,13.0394265 30.2,13.0394265 Z M3.475,13.0394265 C1.8375,13.0394265 0.5,11.7476703 0.5,10.1390681 C0.5,8.53046595 1.825,7.23870968 3.475,7.23870968 C5.125,7.23870968 6.45,8.53046595 6.45,10.1390681 C6.45,11.7476703 5.1125,13.0394265 3.475,13.0394265 Z M17,33.9512545 C15.3625,33.9512545 14.025,32.6594982 14.025,31.0508961 C14.025,29.4422939 15.3625,28.1505376 17,28.1505376 C18.6375,28.1505376 19.975,29.4422939 19.975,31.0508961 C19.975,32.6594982 18.6375,33.9512545 17,33.9512545 Z" id="Combined-Shape"></path>
                        <path d="M21.1625,13.8071685 C20.6375,15.9032258 17.3375,14.8308244 16.25,14.5749104 L17.2125,10.90681 C18.2625,11.1383513 21.6875,11.6501792 21.1625,13.8071685 L21.1625,13.8071685 Z M20.5625,19.7663082 C19.9625,22.0817204 16.0125,20.8265233 14.725,20.5096774 L15.775,16.4516129 C17.0375,16.7684588 21.1625,17.3777778 20.5625,19.7663082 L20.5625,19.7663082 Z M21.1,9.590681 L21.8625,6.56845878 L19.9875,6.08100358 L19.225,9.04229391 C18.725,8.90824373 18.2375,8.82293907 17.7125,8.68888889 L18.475,5.72759857 L16.6,5.27670251 L15.8125,8.29892473 C15.4125,8.20143369 14.9875,8.10394265 14.5875,8.04301075 L11.975,7.39713262 L11.475,9.35913978 L12.8625,9.67598566 C13.625,9.87096774 13.75,10.3462366 13.75,10.7362007 L12.8625,14.1727599 C12.925,14.209319 13,14.209319 13.0625,14.2336918 C13,14.1971326 12.925,14.1971326 12.8625,14.1727599 L11.625,19.0473118 C11.525,19.2666667 11.3,19.6322581 10.7625,19.4982079 C10.8,19.534767 9.375,19.181362 9.375,19.181362 L8.4125,21.3017921 L10.85,21.8867384 C11.3125,22.0207885 11.7375,22.1060932 12.2,22.2401434 L11.4125,25.2989247 L13.2875,25.7498208 L14.075,22.7275986 C14.575,22.8616487 15.1,22.9835125 15.5875,23.1175627 L14.8,26.1032258 L16.675,26.5541219 L17.4625,23.4953405 C20.7,24.0802867 23.1,23.8487455 24.125,21.0215054 C24.95,18.7426523 24.0875,17.3899642 22.375,16.5491039 C23.6625,16.29319 24.5875,15.4888889 24.85,13.8437276 C25.2125,11.5892473 23.475,10.3949821 21.1,9.590681 Z" id="Shape_10_"></path>
                    </g>
                </g>
            </g>
        </g>
    </g>
</svg>