<svg><defs><font id="iconfont" horiz-adv-x="1024"><font-face font-family="iconfont" font-weight="500" units-per-em="1024" ascent="896" descent="-128"/><glyph glyph-name="sell" unicode="" d="M819.2 768a76.8 76.8 0 0076.442-69.427L896 691.2v-61.952a25.6 25.6 0 00-50.79-4.608l-.41 4.608V691.2a25.6 25.6 0 01-20.992 25.19l-4.608.41H204.8a25.6 25.6 0 01-25.19-20.992l-.41-4.608V251.648c5.325 1.894 10.957 3.174 16.742 3.84l8.858.512h614.4c9.011 0 17.613-1.536 25.6-4.403v53.76a25.6 25.6 0 0050.79 4.608l.41-4.608V76.8A76.8 76.8 0 00826.573.358L819.2 0H204.8a76.8 76.8 0 00-76.442 69.427L128 76.8v614.4a76.8 76.8 0 0069.427 76.442l7.373.358h614.4zm0-563.2H204.8a25.6 25.6 0 01-25.19-20.992l-.41-4.608V76.8a25.6 25.6 0 0120.992-25.19l4.608-.41h614.4a25.6 25.6 0 0125.19 20.992l.41 4.608v102.4a25.6 25.6 0 01-20.992 25.19l-4.608.41zM605.082 432.128a25.6 25.6 0 1036.198 36.147l90.522-90.47L894.72 540.723a25.6 25.6 0 1036.198-36.198L749.875 323.482a25.6 25.6 0 00-32.614-2.97l-3.584 2.97-108.595 108.595zM256 128a51.2 51.2 0 11102.4 0 51.2 51.2 0 11-102.4 0z" horiz-adv-x="1024"/><glyph glyph-name="diamond" unicode="" d="M744.755 505.856l77.824 172.646 124.519-174.848H744.755v2.202zM502.425-3.328L349.03 457.114h320.154L502.426-3.328zM73.37 457.114h224.512L442.419 25.446 73.37 457.062zm135.526 234.598l75.674-185.856H84.48l124.467 185.856zM793.6 742.656l-99.994-234.7h-360.14l-88.986 234.75h549.222zm224.563-245.76L809.216 782.49a26.624 26.624 0 01-19.968 11.059h-558.08s-15.565-2.202-24.474-17.664c-26.572-44.237-195.635-294.4-195.635-294.4L0 463.82l13.312-15.514L466.842-78.54c4.505-4.454 6.656-6.707 11.11-8.909 6.656-4.454 33.382-11.059 48.947 0 4.403 2.202 6.656 6.656 11.11 8.858l387.175 397.62a23.04 23.04 0 010 35.43 20.89 20.89 0 01-33.28 0L562.432 14.388l160.102 438.271h262.35c2.2 0 20.018 0 24.473 4.455l2.253 2.252c13.312 6.656 15.513 22.119 6.604 37.581z" horiz-adv-x="1024"/><glyph glyph-name="target" unicode="" d="M486.4 844.8c36.71 0 72.909-4.096 108.134-12.083a25.6 25.6 0 00-11.366-49.92 435.2 435.2 0 11327.68-327.68 25.6 25.6 0 1049.92 11.367A486.399 486.399 0 10486.4 844.8zm0-204.8c39.27 0 77.465-8.038 112.64-23.449a25.6 25.6 0 00-20.48-46.9 230.4 230.4 0 11119.09-119.09 25.6 25.6 0 0046.9 20.48A281.6 281.6 0 10486.4 640zm0-153.6a25.6 25.6 0 000-51.2 76.8 76.8 0 1176.8-76.799 25.6 25.6 0 1051.2 0 128 128 0 10-128 128zm348.518 402.074a25.6 25.6 0 0041.881-8.602l1.28-4.403 20.992-103.834 103.834-20.992a25.6 25.6 0 0018.022-36.147l-2.253-3.788-2.765-3.226-132.966-133.017a25.6 25.6 0 00-18.125-7.476l-5.12.512-107.007 21.658-243.61-243.711a25.6 25.6 0 00-36.198 36.198l243.712 243.711-21.658 106.957a25.6 25.6 0 003.738 19.251l3.225 3.942 133.018 132.967zm2.406-69.99l-89.548-89.498 18.278-90.368 90.368-18.227 89.548 89.549-73.676 14.899a25.6 25.6 0 00-16.128 10.803l-2.407 4.403-1.484 4.813-14.95 73.625z" horiz-adv-x="1024"/><glyph glyph-name="repair" unicode="" d="M601.6 768c45.824 0 85.248-29.594 89.242-69.99l.358-6.81V574.26a25.6 25.6 0 00-50.79-4.609l-.41 4.608V691.2c0 11.571-13.312 23.245-32.46 25.293l-5.94.307h-384c-20.275 0-35.43-10.65-37.99-22.118l-.41-3.482V76.8c0-11.571 13.312-23.245 32.46-25.293l5.94-.307h384c20.275 0 35.43 10.65 37.99 22.118L640 76.8a25.6 25.6 0 1051.2 0c0-41.523-36.966-73.318-82.022-76.544L601.6 0h-384c-45.824 0-85.248 29.594-89.242 69.99L128 76.8v614.4c0 41.523 36.966 73.318 82.022 76.544l7.578.256h384zM256 588.8a51.2 51.2 0 11102.4 0 51.2 51.2 0 11-102.4 0zm516.403-156.16a179.251 179.251 0 01-203.98 34.97 25.6 25.6 0 01-7.066-41.165l66.201-66.253 2.97-3.38c7.066-8.96 6.246-23.602-2.97-32.818a25.6 25.6 0 00-36.198 0l-66.253 66.201a25.6 25.6 0 01-41.216-7.117A179.251 179.251 0 01518.963 179.2l7.22-6.86a179.2 179.2 0 01179.66-35.226L808.602 34.355a76.8 76.8 0 01108.595 0l4.966 5.479a76.8 76.8 0 01-4.966 103.116L814.49 245.658a179.302 179.302 0 01-42.087 186.93zm-36.25-36.25c38.913-38.81 48.333-97.638 24.781-146.278a25.6 25.6 0 015.018-29.389l4.966-3.993 110.08-109.978A25.6 25.6 0 10844.8 70.554L734.72 180.787l-1.331 1.69a25.6 25.6 0 01-32 8.192 128 128 0 00-146.227 24.73l-6.503 7.014a128 128 0 00-30.566 94.003l.87 7.578 36.199-36.199a76.8 76.8 0 01114.534 101.888l-4.915 5.632-37.223 37.274 7.578.87a128 128 0 00101.018-37.069z" horiz-adv-x="1024"/><glyph glyph-name="construct" unicode="" d="M256 768a25.6 25.6 0 004.608-50.79L256 716.8h-51.2a25.6 25.6 0 01-25.19-20.992l-.41-4.608V76.8a25.6 25.6 0 0120.992-25.19l4.608-.41h614.4a25.6 25.6 0 0125.19 20.992l.41 4.608v614.4a25.6 25.6 0 01-20.992 25.19l-4.608.41H768a25.6 25.6 0 00-4.608 50.79L768 768h51.2a76.8 76.8 0 0076.442-69.427L896 691.2V76.8A76.8 76.8 0 00826.573.358L819.2 0H204.8a76.8 76.8 0 00-76.442 69.427L128 76.8v614.4a76.8 76.8 0 0069.427 76.442l7.373.358H256zm409.6-588.8a51.2 51.2 0 11102.4 0 51.2 51.2 0 11-102.4 0zM512 665.6a128 128 0 110-256 128 128 0 010 256zm0-51.2a76.8 76.8 0 100-153.6 76.8 76.8 0 000 153.6zm-12.8 201.37l-221.696-128a25.6 25.6 0 01-12.8-22.17v-256a25.6 25.6 0 0112.8-22.17l221.696-128a25.6 25.6 0 0125.6 0l221.696 128a25.6 25.6 0 0112.8 22.17v256a25.6 25.6 0 01-12.8 22.17l-221.696 128a25.6 25.6 0 01-25.6 0zm12.8-51.712l196.096-113.255V424.448L512 311.194 315.853 424.448v226.355L512 764.058z" horiz-adv-x="1024"/><glyph glyph-name="host" unicode="" d="M819.2 768a76.8 76.8 0 0076.442-69.427L896 691.2V486.4a76.8 76.8 0 00-69.427-76.442l-7.373-.358H512a25.6 25.6 0 00-4.608 50.79l4.608.41h307.2a25.6 25.6 0 0125.19 20.992l.41 4.608v204.8a25.6 25.6 0 01-20.992 25.19l-4.608.41H204.8a25.6 25.6 0 01-25.19-20.992l-.41-4.608v-256a25.6 25.6 0 00-50.79-4.608L128 435.2v256a76.8 76.8 0 0069.427 76.442l7.373.358h614.4zM256 588.8a51.2 51.2 0 11102.4 0 51.2 51.2 0 11-102.4 0zm587.622-218.624c41.472 27.392 89.6 23.04 140.032-9.933a25.6 25.6 0 009.728-31.13l-2.15-4.095L763.341-32.256a25.6 25.6 0 00-17.255-11.469l-4.352-.358H278.067a25.6 25.6 0 00-4.608 50.79l4.608.41 449.587.051 205.722 322.458-.512.256c-21.504 9.318-39.629 9.216-55.757.716l-5.273-3.123-6.35-4.608-7.065-6.041-8.601-8.397L834.61 292.3l-42.137-47.258-25.14-28.467-16.742-18.534-7.782-8.397-14.336-15.053c-31.796-32.46-52.532-46.797-72.91-48.589l-4.351-.153H512c-10.138 0-19.302 0-27.904.153l-24.166.512-22.221 1.178c-3.635.205-7.27.512-10.906.819l-18.534 1.792c-43.008 4.813-62.31 13.466-62.31 41.728 0 54.733 31.743 75.776 96.614 88.013l36.864 6.246 12.134 2.458c8.755 2.048 14.439 3.942 18.995 6.451 15.053 8.192 25.088 19.968 28.826 31.027l1.178 4.71a8.038 8.038 0 00.614 2.049l.205.256H278.067c-46.387 0-105.472-67.482-170.7-205.568l-6.964-15.053a25.6 25.6 0 10-46.592 21.299c73.472 160.256 143.411 244.736 216.679 250.214l7.577.256h267.264c33.997 0 51.559-29.696 45.67-62.566-5.068-27.904-25.446-54.938-55.91-71.578-11.93-6.502-23.5-10.035-43.673-13.824l-30.413-5.12c-36.864-6.144-54.272-12.492-60.775-24.78l-1.126-2.56 1.69-.41c5.734-1.229 12.953-2.304 21.401-3.174l8.858-.87c10.137-.82 20.224-1.434 31.078-1.793l23.091-.512L512 177.05h139.213c1.229 0 3.277.921 6.041 2.713l6.4 4.813 8.295 7.117 10.035 9.42 11.725 11.623 13.312 13.824 22.681 24.832 62.567 70.502 17.305 18.74 6.964 7.065 8.908 8.5 7.885 6.655 7.68 5.632a188.928 188.928 0 002.611 1.741z" horiz-adv-x="1024"/><glyph glyph-name="mining-mode" unicode="" d="M512 896a512 512 0 100-1024 512 512 0 000 1024zM335.872 689.006a64.95 64.95 0 11-42.13-119.37v-.146l67.803-395.264a64.95 64.95 0 1188.284-40.228L777.728 311.88a21.87 21.87 0 011.317.732 64.95 64.95 0 11-19.383 113.59 21.65 21.65 0 01-3.511 2.195l-391.168 193.61a64.95 64.95 0 01-29.184 66.999zm51.931-552.595a21.65 21.65 0 100-43.227 21.65 21.65 0 000 43.227zm-44.617 448.147l392.777-194.414a64.585 64.585 0 017.607-49.59L425.18 167.862a64.585 64.585 0 01-31.818 11.63l-.292 2.194-67.292 392.338a64.95 64.95 0 0117.335 10.533zM798.94 396.142a21.65 21.65 0 100-43.3 21.65 21.65 0 000 43.3zM301.202 655.799a21.65 21.65 0 100-43.3 21.65 21.65 0 000 43.3z" horiz-adv-x="1024"/><glyph glyph-name="gift-icon" unicode="" d="M945.602 384.073H78.252A78.252 78.252 0 000 462.325v99.46a78.252 78.252 0 0078.252 78.252h198.7a291.725 291.725 0 00-47.536 37.443 127.982 127.982 0 00181.076 181.003 425.119 425.119 0 00100.484-207.696l.95-5.266.952 5.412a425.119 425.119 0 00100.484 207.623A127.982 127.982 0 10794.437 677.48a291.725 291.725 0 00-47.536-37.517h198.701a78.252 78.252 0 0078.252-78.178v-99.46a78.252 78.252 0 00-78.252-78.252zM365.223 813.141a63.99 63.99 0 01-90.538-90.465c49.438-42.417 109.26-70.938 173.251-82.786a369.1 369.1 0 01-82.713 173.251zm383.945-90.465a63.99 63.99 0 11-90.538 90.465 369.1 369.1 0 01-82.712-173.25 369.1 369.1 0 01173.324 82.785h-.074zm210.695-772.57c0-43.149-35.104-78.106-78.252-78.106H142.243A78.252 78.252 0 0063.99-49.748v369.757h895.872V-49.82z" horiz-adv-x="1024"/><glyph glyph-name="water-fire-e" unicode="" d="M487.424 882.47a47.103 47.103 0 0066.218-.137c122.196-119.397 350.886-331.567 350.886-573.569A389.115 389.115 0 00520.533-85.402 389.115 389.115 0 00136.54 308.764c0 241.115 231.557 457.38 350.885 573.705zm10.65-283.44c-15.701 0-49.288-27.375-73.727-51.336C319.764 445.432 273.07 327.196 273.07 203.157c0-124.175 43.69-189.642 84.513-226.506S451.448-83.627 512-83.627 648.804-66.493 687.443-30.38C725.945 5.8 750.93 59.936 750.93 131.546s-64.716 128.203-75.707 183.976c-5.666 29.082-2.184 56.183 15.701 86.356 9.49 16.111 22.596 34.406 16.726 43.964-5.803 9.625-37.478 3.754-48.47 0-15.7-5.257-43.007-18.978-62.599-40.96-19.524-22.05-26.487-32.7-37.273-55.159-3.754-7.85-7.1-12.56-12.697-12.287-5.53.273-10.513 9.215-15.019 18.227a335.867 335.867 0 00-33.45 121.786 297.365 297.365 0 002.73 81.1c3.073 17.544 12.971 40.48-2.73 40.48z" horiz-adv-x="1024"/><glyph glyph-name="machine" unicode="" d="M394.718 827.733c49.152 0 88.951-39.867 88.951-88.951V29.218c0-49.152-39.8-88.951-88.951-88.951h-237.5c-49.152 0-88.951 39.867-88.951 88.951v709.564c0 49.152 39.867 88.951 88.951 88.951h237.5zM248.286 314.231a33.041 33.041 0 01-33.041-33.04V133.597l.273-4.437a33.041 33.041 0 0165.809 4.437V281.19l-.273 4.506a33.041 33.041 0 01-32.768 28.535zm618.496 513.502c49.152 0 88.951-39.867 88.951-88.951V29.218c0-49.152-39.867-88.951-88.951-88.951h-237.5c-49.152 0-88.951 39.867-88.951 88.951v709.564c0 49.152 39.867 88.951 88.951 88.951h237.5zM720.35 314.231a33.041 33.041 0 01-33.041-33.04V133.597l.273-4.437a33.041 33.041 0 0165.809 4.437V281.19l-.341 4.506a33.041 33.041 0 01-32.768 28.535z" horiz-adv-x="1024"/><glyph glyph-name="flash" unicode="" d="M913.613 452.95a27.102 27.102 0 01-7.032 4.983 29.355 29.355 0 01-17.749 5.939H610.441l93.525 392.943a28.126 28.126 0 01.273 11.742 26.76 26.76 0 01-8.465 18.5 29.082 29.082 0 01-40.277-.205l-544.768-532.07a26.829 26.829 0 01-8.192-21.368 27.99 27.99 0 0126.146-29.627h289.314L322.219-83.217a23.074 23.074 0 01-.888-6.554 27.102 27.102 0 017.032-28.194 28.877 28.877 0 0140.277.205l544.768 531.797a26.897 26.897 0 01.614 38.093c0 .205-.204.41-.41.82z" horiz-adv-x="1024"/><glyph glyph-name="gps" unicode="" d="M510.498 827.733c216.61 0 373.897-157.218 373.897-373.964 0-152.235-206.78-410.01-317.713-548.591l-8.192-10.172a61.303 61.303 0 00-95.779 0l-8.192 10.24C343.245 43.69 136.533 301.466 136.533 453.7a374.374 374.374 0 00373.965 374.033zm-1.98-205.96a138.308 138.308 0 01-138.171-138.104c0-76.254 61.918-138.171 138.171-138.171A138.308 138.308 0 01646.69 483.669a138.308 138.308 0 01-138.103 138.104z" horiz-adv-x="1024"/><glyph glyph-name="download-app" unicode="" d="M512 691.2q25.6 0 25.6-25.6V358.4q0-25.6-25.6-25.6t-25.6 25.6v307.2q0 25.6 25.6 25.6zm18.125-357.12a25.6 25.6 0 00-36.25 0L385.331 442.675a25.6 25.6 0 1036.147 36.25L512 388.352l90.573 90.573a25.6 25.6 0 1036.198-36.25L530.176 334.131zM716.8 870.4a128 128 0 00127.744-119.603l.256-8.397V124.98a25.6 25.6 0 00-50.79-4.609l-.41 4.608V742.4a76.8 76.8 0 01-69.427 76.442l-7.373.358H307.2a76.8 76.8 0 01-76.442-69.427l-.358-7.373V25.6a76.8 76.8 0 0169.427-76.442l7.373-.358h409.6a76.8 76.8 0 0176.8 76.8 25.6 25.6 0 1051.2 0 128 128 0 00-119.603-127.744l-8.397-.256H307.2A128 128 0 00179.456 17.203L179.2 25.6v716.8a128 128 0 00119.603 127.744l8.397.256h409.6zM230.4 179.2h563.2q25.6 0 25.6-25.6T793.6 128H230.4q-25.6 0-25.6 25.6t25.6 25.6zm230.4-128a51.2 51.2 0 11102.4 0 51.2 51.2 0 11-102.4 0z" horiz-adv-x="1024"/><glyph glyph-name="fire-e" unicode="" d="M488.448 882.21a47.104 47.104 0 0066.082-.136c54.477-53.18 129.98-124.724 197.086-209.101l-.683-.956c14.678 20.344 22.05 39.322 22.05 56.798 0 26.283-28.467 82.398-6.485 97.075 21.914 14.746 92.843-76.595 106.633-118.101 13.721-41.643 27.443-89.43 23.21-163.158-1.706-29.764-.41-86.971 3.823-171.554 3.55-21.299 5.393-42.871 5.393-64.58a389.12 389.12 0 00-384-394.172 389.188 389.188 0 00-383.522 368.982l-.546-1.024.41 4.505a346.795 346.795 0 00-.342 21.71c0 17.339 2.048 34.269 5.94 50.858 2.867 43.008 3.686 74.41 2.594 94.413-4.233 73.728-13.79 135.372 0 176.947 13.79 41.642 107.861 119.057 129.843 104.311 21.913-14.677-20.685-70.792-20.685-97.075 0-17.476 12.083-36.454 36.181-56.866l-3.96 3.686c22.529 25.395 44.784 50.45 64.718 75.298 66.355 82.74 84.104 171.35 136.26 222.14zm69.973-294.366a18.842 18.842 0 01-21.367-7.168l-171.69-246.784a19.797 19.797 0 011.91-24.917 19.183 19.183 0 0113.45-5.803h69.426a19.115 19.115 0 0018.91-19.456V130.321a18.91 18.91 0 0134.338-11.332l171.76 246.852a19.456 19.456 0 01-15.36 30.72H590.37a19.183 19.183 0 00-18.91 19.456v153.395a18.842 18.842 0 01-12.97 18.432z" horiz-adv-x="1024"/><glyph glyph-name="water-e" unicode="" d="M554.53 882.074a47.104 47.104 0 01-66.082.136c-119.467-116.326-350.89-332.459-350.89-573.713a389.12 389.12 0 01384-394.172 389.12 389.12 0 01384 394.172c0 242.005-228.694 454.178-351.028 573.577zM675.157 365.84L503.398 118.99a18.91 18.91 0 00-34.338 11.332v153.327a19.115 19.115 0 01-18.91 19.456h-69.427a19.183 19.183 0 00-18.91 19.456 19.797 19.797 0 003.55 11.264l171.76 246.784a18.842 18.842 0 0034.337-11.264V415.949a19.183 19.183 0 0118.91-19.456h69.427a19.456 19.456 0 0015.36-30.72z" horiz-adv-x="1024"/><glyph glyph-name="location" unicode="" d="M512 793.6c169.643 0 307.2-136.943 307.2-305.971 0-17.34-1.434-34.475-4.506-51.951l-3.55-17.681-6.963-25.19-1.297-3.14-5.666-11.47-9.284-17.749-27.307-49.903-54.204-96.597-80.554-140.63-23.894-40.55-9.079-14.61-18.432-28.535a34.133 34.133 0 00-59.802 32.495l4.096 7.237 19.798 30.378 27.443 46.558 74.752 130.253 78.848 139.878 13.517 24.781 4.778 9.284.956 2.117 6.144 22.186c3.96 17.204 5.94 34.816 5.94 52.839 0 131.14-106.906 237.568-238.934 237.568S273.067 618.769 273.067 487.629c0-13.449 1.092-26.76 3.208-39.185l2.321-12.152 6.076-21.982 2.867-6.28 20.617-38.366 69.837-123.63 66.833-116.054a34.133 34.133 0 10-59.051-34.27l-92.57 161.04-46.694 83.491-17.545 33.041-6.348 13.04-3.414 8.191-6.826 25.054a305.698 305.698 0 00-7.578 68.062C204.8 656.657 342.357 793.6 512 793.6zm0-136.806c94.208 0 170.667-76.596 170.667-171.008A170.871 170.871 0 00512 314.709c-94.208 0-170.667 76.596-170.667 171.077A170.871 170.871 0 00512 656.794zm0-68.404c-56.525 0-102.4-45.943-102.4-102.604 0-56.662 45.875-102.673 102.4-102.673s102.4 45.943 102.4 102.673c0 56.66-45.875 102.604-102.4 102.604z" horiz-adv-x="1024"/><glyph glyph-name="stack" unicode="" d="M870.4 819.2H153.6a76.8 76.8 0 01-76.8-76.8V640a76.8 76.8 0 0176.8-76.8h716.8a76.8 76.8 0 0176.8 76.8v102.4a76.8 76.8 0 01-76.8 76.8zM153.6 768h716.8a25.6 25.6 0 0025.6-25.6V640a25.6 25.6 0 00-25.6-25.6H153.6A25.6 25.6 0 00128 640v102.4a25.6 25.6 0 0025.6 25.6zm537.6-51.2h102.4q25.6 0 25.6-25.6t-25.6-25.6H691.2q-25.6 0-25.6 25.6t25.6 25.6zm0-307.2h102.4q25.6 0 25.6-25.6t-25.6-25.6H691.2q-25.6 0-25.6 25.6t25.6 25.6zm0-307.2h102.4q25.6 0 25.6-25.6t-25.6-25.6H691.2q-25.6 0-25.6 25.6t25.6 25.6zM870.4 512H153.6a76.8 76.8 0 01-76.8-76.8V332.8a76.8 76.8 0 0176.8-76.8h716.8a76.8 76.8 0 0176.8 76.8v102.4a76.8 76.8 0 01-76.8 76.8zm-716.8-51.2h716.8a25.6 25.6 0 0025.6-25.6V332.8a25.6 25.6 0 00-25.6-25.6H153.6a25.6 25.6 0 00-25.6 25.6v102.4a25.6 25.6 0 0025.6 25.6zm716.8-256H153.6A76.8 76.8 0 0176.8 128V25.6a76.8 76.8 0 0176.8-76.8h716.8a76.8 76.8 0 0176.8 76.8V128a76.8 76.8 0 01-76.8 76.8zm-716.8-51.2h716.8A25.6 25.6 0 00896 128V25.6A25.6 25.6 0 00870.4 0H153.6A25.6 25.6 0 00128 25.6V128a25.6 25.6 0 0025.6 25.6z" horiz-adv-x="1024"/><glyph glyph-name="clock" unicode="" d="M512 870.4a486.4 486.4 0 00473.651-597.402 25.6 25.6 0 00-49.869 11.623A435.2 435.2 0 11817.254 73.83a25.6 25.6 0 1035.943-36.506A486.4 486.4 0 10512 870.4zm0-256q25.6 0 25.6-25.6V384q0-25.6-25.6-25.6T486.4 384v204.8q0 25.6 25.6 25.6zm275.537-388.25q-12.8-22.17-34.97-9.37l-243.873 140.8q-22.17 12.8-9.37 34.97 12.8 22.17 34.97 9.37l243.873-140.8q22.17-12.8 9.37-34.97z" horiz-adv-x="1024"/><glyph glyph-name="miner" unicode="" d="M716.8 819.2H307.2A179.2 179.2 0 01128 640V128A179.2 179.2 0 01307.2-51.2h409.6A179.2 179.2 0 01896 128v512a179.2 179.2 0 01-179.2 179.2zM307.2 768h409.6a128 128 0 00128-128V128a128 128 0 00-128-128H307.2a128 128 0 00-128 128v512a128 128 0 00128 128zM384 640h256q25.6 0 25.6-25.6T640 588.8H384q-25.6 0-25.6 25.6T384 640zm0-153.6h256q25.6 0 25.6-25.6T640 435.2H384q-25.6 0-25.6 25.6t25.6 25.6zm128-128a128 128 0 110-256 128 128 0 010 256zm0-51.2a76.8 76.8 0 100-153.6 76.8 76.8 0 000 153.6z" horiz-adv-x="1024"/><glyph glyph-name="permission" unicode="" d="M409.6 716.8a179.2 179.2 0 110-358.4 179.2 179.2 0 010 358.4zm0-51.2a128 128 0 100-256 128 128 0 000 256zm0-256c90.266 0 173.466-42.803 226.304-113.92a25.6 25.6 0 00-41.165-30.515A230.4 230.4 0 01179.2 128a25.6 25.6 0 10-51.2 0 281.6 281.6 0 00281.6 281.6zm595.61-140.595a25.6 25.6 0 002.97-32.666l-2.97-3.533-304.64-304.64a25.6 25.6 0 00-32.717-3.02l-3.533 2.97-182.58 182.578a25.6 25.6 0 0032.666 39.168l3.584-2.97L682.394-17.561 969.01 269.005a25.6 25.6 0 0032.666 2.97l3.533-2.97zM870.4 614.4a25.6 25.6 0 004.608-50.79l-4.608-.41H665.6a25.6 25.6 0 00-4.608 50.79l4.608.41h204.8zM768 512a25.6 25.6 0 004.608-50.79L768 460.8H665.6a25.6 25.6 0 00-4.608 50.79l4.608.41H768zm51.2-102.4a25.6 25.6 0 004.608-50.79l-4.608-.41H665.6a25.6 25.6 0 00-4.608 50.79l4.608.41h153.6z" horiz-adv-x="1024"/><glyph glyph-name="loan" unicode="" d="M577 349.989a36.571 36.571 0 0036.424-36.572A36.571 36.571 0 00577 276.7H311.198a18.286 18.286 0 01-11.703-4.242l-109.714-92.672L301.47 41.18l94.208 75.85a18.286 18.286 0 0011.41 4.022h350.72a18.286 18.286 0 0111.703 4.389l194.853 164.425a36.279 36.279 0 0051.273-4.535 36.79 36.79 0 00-4.389-51.639l-199.9-168.594a72.923 72.923 0 00-47.03-17.262H424.204A18.286 18.286 0 01412.5 43.52L233.3-107.666a76.434 76.434 0 00-108.105 9.508L18.188 29.99a77.531 77.531 0 009.435 108.836l244.59 206.41a18.286 18.286 0 0011.703 4.388l293.083.292zM133.972 132.754L87.527 93.477A20.992 20.992 0 0184.967 64l85.285-102.254c7.387-8.85 20.48-10.02 29.257-2.56l45.056 36.206-110.592 137.29zM746.252 896a277.943 277.943 0 100-555.886 277.943 277.943 0 000 555.886zm0-73.143a204.8 204.8 0 110-409.6 204.8 204.8 0 010 409.6zm-563.2-109.714a146.286 146.286 0 100-292.572 146.286 146.286 0 000 292.572zm0-73.143a73.143 73.143 0 110-146.286 73.143 73.143 0 010 146.286z" horiz-adv-x="1024"/><glyph glyph-name="leverage" unicode="" d="M727.333-124.635c-113.226 0-181.76 22.674-219.429 41.837-24.137 12.288-42.862 26.478-55.589 42.496C440.101-24.942 433.81-8.704 433.81 7.9v358.254c0 16.604 6.29 32.768 18.505 48.128 12.727 16.018 31.452 30.354 55.589 42.496 37.45 19.164 106.057 41.838 219.429 41.838s181.979-22.674 219.501-41.838c24.137-12.288 42.862-26.478 55.589-42.423 12.215-15.433 18.505-31.597 18.651-48.274V12.142l-.146-5.632c-.366-16.457-6.949-32.549-19.383-47.69-12.873-15.871-31.744-29.988-55.662-42.057-37.741-19.017-105.984-41.398-218.55-41.398zM508.197 7.826c0-7.314 11.922-24.21 56.539-40.52 43.447-15.873 101.157-24.65 162.597-24.65 61.513 0 119.222 8.777 162.67 24.576C934.618-16.53 946.541.439 946.541 7.753v88.43l-2.633-1.39c-53.907-26.478-128.732-40.375-216.503-40.375S564.59 68.315 510.903 94.793l-2.706 1.39V7.826zm0 179.2c0-7.314 11.922-24.283 56.539-40.594 43.447-15.799 101.157-24.65 162.597-24.65 61.513 0 119.222 8.778 162.67 24.65 44.616 16.31 56.539 33.207 56.539 40.521v88.43l-2.633-1.39c-53.907-26.478-128.732-40.375-216.503-40.375s-162.816 13.897-216.503 40.375l-2.706 1.39v-88.43zm219.136 244.297c-61.44 0-119.15-8.777-162.597-24.649-44.617-16.237-56.54-33.207-56.54-40.52 0-7.315 11.923-24.211 56.54-40.522 43.447-15.872 101.157-24.722 162.597-24.722 61.513 0 119.222 8.777 162.67 24.722 44.616 16.238 56.539 33.207 56.539 40.521s-11.923 24.21-56.54 40.521c-43.447 15.872-101.156 24.65-162.67 24.65zM408.649-11.045C307.42-10.02 207.141 7.095 133.34 35.913 92.233 52.005 59.977 71.241 37.522 93.184c-24.21 23.552-36.425 49.883-36.425 77.97v541.989c0 28.16 12.434 54.345 36.425 77.897 22.455 21.797 54.711 41.106 95.817 57.27 76.362 29.99 180.224 46.959 285.038 46.959 104.814 0 208.604-17.189 284.965-46.958 41.18-16.092 73.435-35.328 95.817-57.271 24.21-23.552 36.425-49.883 36.425-77.897V516.096h-71.241v92.16l-2.633-1.682c-38.473-23.772-91.429-43.155-153.38-56.467a923.063 923.063 0 00-189.953-19.163c-65.097 0-130.926 6.656-189.952 19.163-61.952 13.24-114.98 32.695-153.38 56.32l-2.634 1.61V442.149c0-12.508 8.412-26.186 24.357-39.498 16.238-13.458 40.01-26.55 68.974-37.595 64.365-24.722 150.674-38.766 243.346-39.717l7.753-.146v-65.536l-8.192.073c-61.952.585-124.27 7.315-180.224 19.237-61.879 13.166-115.054 32.695-153.38 56.32l-2.634 1.755V171.154c0-12.507 8.412-26.185 24.357-39.57 16.238-13.531 40.01-26.624 68.974-37.669C230.107 69.193 316.416 55.15 409.088 54.2l7.753-.146v-65.39l-8.265.292zm9.801 841.07c-96.256 0-186.148-14.116-252.855-39.716-28.745-11.045-52.662-24.138-68.973-37.669-15.945-13.385-24.357-27.063-24.357-39.497 0-12.508 8.412-26.185 24.357-39.57 16.237-13.386 40.009-26.478 68.973-37.523 66.707-25.6 156.526-39.643 252.855-39.643 96.33 0 186.149 14.043 252.855 39.57 28.745 11.045 52.663 24.137 68.974 37.669 15.945 13.385 24.356 27.063 24.356 39.497 0 12.58-8.411 26.258-24.356 39.643-16.238 13.459-40.01 26.551-68.974 37.596-66.706 25.527-156.526 39.643-252.855 39.643z" horiz-adv-x="1024"/><glyph glyph-name="current-user" unicode="" d="M512 896C229.222 896 0 666.778 0 384s229.222-512 512-512 512 229.222 512 512c-.358 282.624-229.376 511.642-512 512zM833.946 67.482l-13.108-13.927-3.481 18.432a311.91 311.91 0 01-66.714 142.695 30.054 30.054 0 01-46.08-38.554A250.624 250.624 0 00762.522 13.21V7.885l-4.455-2.919a450.867 450.867 0 00-492.646 0l-4.455 2.919v7.936A250.624 250.624 0 00511.59 266.496a215.808 215.808 0 11-132.608 45.926l12.442-9.625-13.926-6.81A311.808 311.808 0 01206.643 72.653l-3.481-18.381-13.108 13.926A447.232 447.232 0 0060.16 384 451.84 451.84 0 10833.946 67.482zm-477.082 414.72a154.982 154.982 0 10309.965-.308 154.982 154.982 0 00-309.965.256z" horiz-adv-x="1024"/><glyph glyph-name="link" unicode="" d="M333.926 252.211l284.672 283.546a31.898 31.898 0 0046.592-.41 32.922 32.922 0 00-.41-47.104L380.11 204.698a31.898 31.898 0 00-46.541.358 32.922 32.922 0 00.358 47.155zm168.039 240.896c10.086 10.087 13.465 26.778 6.912 36.967-16.23 37.222-9.216 84.275 20.838 114.33L683.725 797.9c40.243 39.987 103.27 39.475 139.571-1.28l102.093-105.267c39.526-40.756 39.065-104.807-1.178-141.415l-154.06-153.446c-30.157-30.055-76.698-36.352-113.05-19.098-13.261 6.759-29.85 7.015-39.936-6.451-16.691-16.691-10.24-43.622 9.625-53.914a170.7 170.7 0 01192.87 28.519l150.734 156.877c67.072 66.662 67.84 171.059 1.894 239.104l-101.99 101.632c-65.844 67.942-168.91 68.915-235.93 2.15l-154.01-153.446c-50.278-50.074-60.825-127.437-34.764-191.59 13.107-16.897 39.68-23.911 56.37-7.169zm21.504-219.136c-10.035-10.035-13.415-26.777-6.861-36.966 16.282-37.223 9.216-84.275-20.838-114.33L341.76-30.77c-40.243-40.039-103.27-39.527-139.52 1.229L99.994 75.878c-39.527 40.756-39.066 104.756 1.177 141.364l154.01 153.497a100.915 100.915 0 00113.152 19.098c13.21-6.912 29.798-7.066 39.833 6.4 16.743 16.742 10.292 43.673-9.574 53.965a170.906 170.906 0 01-193.024-28.519L51.712 268.288c-67.072-66.611-67.84-171.008-1.894-238.95L151.91-75.93c65.997-67.942 168.91-68.966 235.93-2.15L541.85 75.366c50.176 50.074 60.825 127.437 34.764 191.59-9.83 16.692-36.352 23.758-53.094 7.015z" horiz-adv-x="1024"/><glyph glyph-name="more" unicode="" d="M512 76.8a102.4 102.4 0 100-204.8 102.4 102.4 0 000 204.8zm0 409.6a102.4 102.4 0 100-204.8 102.4 102.4 0 000 204.8zm0 409.6a102.4 102.4 0 100-204.8 102.4 102.4 0 000 204.8z" horiz-adv-x="1024"/><glyph glyph-name="menu-bar" unicode="" d="M64-64h896v192H64V-64zm64 128h384V0H128v64zM64 320h896v192H64V320zm64 128h384v-64H128v64zM64 896V704h896v192H64zm448-128H128v64h384v-64z" horiz-adv-x="1024"/><glyph glyph-name="close-round" unicode="" d="M886.886 731.904A509.594 509.594 0 001024 384c0-282.778-229.222-512-512-512H188.62l226.817 229.069.512.563c4.25 4.966 34.867 39.834 55.654 39.834A40.448 40.448 0 00512 101.018V-20.224A404.224 404.224 0 01916.224 384 402.227 402.227 0 01810.65 655.718zM835.38 896L608.563 666.931s-33.792-40.448-56.115-40.448A40.448 40.448 0 00512 666.931v121.293A404.224 404.224 0 01107.776 384c0-104.755 40.243-199.885 105.574-271.718l-76.236-76.186A509.491 509.491 0 000 384c0 282.778 229.222 512 512 512h323.38zM413.645 526.285l87.757-87.808 87.756 87.808a31.027 31.027 0 0043.879-43.93l-87.757-87.757 87.757-87.756a31.027 31.027 0 10-43.879-43.879l-87.756 87.757-87.757-87.757a31.027 31.027 0 10-43.93 43.879l87.808 87.756-87.808 87.757a31.027 31.027 0 1043.93 43.93z" horiz-adv-x="1024"/><glyph glyph-name="open-round" unicode="" d="M107.776 383.898A404.224 404.224 0 00512 788.122V666.88c0-22.323 18.125-40.448 40.448-40.448s56.115 40.448 56.115 40.448L835.38 895.949H512c-282.778 0-512-229.274-512-512A509.491 509.491 0 01137.114 35.994l76.236 76.236a402.38 402.38 0 00-105.574 271.668zm779.11 347.955l-76.236-76.237a402.227 402.227 0 00105.574-271.718A404.224 404.224 0 00512-20.275v121.241a40.448 40.448 0 01-40.448 40.448c-22.323 0-56.115-40.448-56.115-40.448L188.62-128H512c282.778 0 512 229.222 512 512a509.594 509.594 0 01-137.114 347.904z" horiz-adv-x="1024"/><glyph glyph-name="edit" unicode="" d="M558.524 727.927v-47.24h-338.74c-70.45 0-128.204-51.2-133.53-116.19l-.272-9.83V50.517c0-69.632 59.938-126.02 133.94-126.02h535.62c73.932 0 133.87 56.457 133.87 126.02v346.59h47.24V47.377c0-90.317-74.273-164.25-168.208-169.78l-11.333-.34H218.283c-99.192 0-179.61 76.185-179.61 170.12v510.43c0 94.003 80.418 170.12 179.541 170.12h340.31zm-13.107 0h26.282q34.134 0 34.134-34.133t-34.134-34.133h-26.282q-34.134 0-34.134 34.133t34.134 34.133zm343.927-354.44v47.24a23.62 23.62 0 1047.309 0v-47.24a23.62 23.62 0 10-47.309 0zm73.591 429.397c36.864-36.864 36.864-96.734 0-133.666L461.653 167.936l-167.116-33.45 33.45 167.116L829.27 802.884c36.864 36.933 96.734 36.933 133.666 0zm-33.45-100.215a47.24 47.24 0 11-66.833 66.833l-491.11-491.179-16.726-83.558 83.558 16.725 491.11 491.179z" horiz-adv-x="1024"/><glyph glyph-name="error" unicode="" d="M512 896c282.767 0 512-229.233 512-512 0-66.806-12.8-130.642-36.066-189.153l-.102.061-.614-1.433a30.474 30.474 0 00-55.215 25.805l-.47-1.311A450.273 450.273 0 01963.05 384c0 249.098-201.933 451.052-451.051 451.052-249.098 0-451.052-201.933-451.052-451.052C60.948 134.902 262.881-67.05 512-67.05a449.126 449.126 0 01279.347 96.91c5.386 4.178 12.042 6.718 19.313 6.718a30.474 30.474 0 0016.506-56.116l2.765 2.192A509.829 509.829 0 00512-128C229.233-128 0 101.233 0 384s229.233 512 512 512zm173.67-338.063a30.474 30.474 0 000-43.11L554.946 384.163 685.65 253.44c11.161-11.161 11.878-28.815 2.089-40.775l-2.09-2.315a30.474 30.474 0 00-43.09 0L511.837 341.054 381.174 210.35a30.474 30.474 0 00-43.11 43.09l130.682 130.724-130.662 130.662a30.474 30.474 0 00-2.11 40.797l2.09 2.314a30.474 30.474 0 0043.11 0l130.662-130.683L642.56 557.916a30.474 30.474 0 0043.09 0z" horiz-adv-x="1024"/><glyph glyph-name="product" unicode="" d="M1335.688 767.68H64.328a62.016 62.016 0 00-45.44 18.88A61.696 61.696 0 00.008 832c0 17.6 6.336 32.64 18.816 44.608a63.232 63.232 0 0045.44 18.176h1271.488c17.664 0 32.832-6.08 45.44-18.176a59.52 59.52 0 0018.816-44.736 62.208 62.208 0 00-18.816-45.44 61.568 61.568 0 00-45.44-18.816zm0-445.696H64.328a62.016 62.016 0 00-45.44 18.88 61.696 61.696 0 00-18.816 45.44 62.08 62.08 0 0018.816 45.44 61.824 61.824 0 0045.44 18.816h1271.488c17.664 0 32.832-6.272 45.44-18.88a61.696 61.696 0 0018.816-45.44 62.08 62.08 0 00-18.816-45.44 61.824 61.824 0 00-45.44-18.816zm0-444.288H64.328a62.016 62.016 0 00-45.44 18.88A60.864 60.864 0 00.072-58.752c0 17.28 6.336 32.128 18.816 44.736A61.824 61.824 0 0064.328 4.8h1271.488c17.664 0 32.832-6.272 45.44-18.816 12.544-12.608 18.816-27.52 18.816-44.736 0-17.28-6.336-32.128-18.816-44.672a61.824 61.824 0 00-45.44-18.88z" horiz-adv-x="1408"/><glyph glyph-name="share-facebook-new" unicode="" d="M767.429 889.143V738.286h-89.715q-49.143 0-66.285-20.572T594.286 656V548h167.428L739.43 378.857H594.286V-54.857H419.429v433.714H273.714V548H419.43v124.571q0 106.286 59.428 164.858T637.143 896q84 0 130.286-6.857z" horiz-adv-x="1024"/><glyph glyph-name="share-email" unicode="" d="M512.012 265.465L927.56 611.69c-2.251.41-4.274 1.348-6.61 1.348H103.074c-2.288 0-4.323-.927-6.574-1.348l415.512-346.226zm446.122 310.39c0 3.902-1.072 7.514-2.252 11.067L661.313 341.398 956.327 46.323c.759 2.974 1.807 5.84 1.807 9.055v520.478zm-889.98 11.103c-1.144-3.577-2.288-7.14-2.288-11.102V55.39c0-3.25 1.12-6.105 1.855-9.079L362.83 341.41 68.154 586.958zm564.429-269.45l-108.698-90.54c-3.408-2.902-7.622-4.299-11.873-4.299-4.214 0-8.453 1.397-11.897 4.3l-108.601 90.49L94.079 20.037c2.926-.77 5.828-1.842 8.995-1.842h817.888c3.227 0 6.129 1.06 9.115 1.842l-297.494 297.47z" horiz-adv-x="1024"/><glyph glyph-name="filter" unicode="" d="M622.746 406.835a22.426 22.426 0 00-22.119-22.681 22.477 22.477 0 00-22.17 22.681v23.603c0 15.975 5.479 31.386 15.412 43.674l181.043 222.822H249.088l181.043-222.822c9.933-12.288 15.36-27.75 15.36-43.674V48.333A22.426 22.426 0 00423.424 25.6a22.477 22.477 0 00-22.17 22.733v382.105a23.091 23.091 0 01-5.12 14.541L215.091 667.853a46.182 46.182 0 00-10.291 29.133c0 25.036 19.866 45.414 44.288 45.414h525.824c10.342 0 20.378-3.738 28.365-10.547a46.336 46.336 0 005.632-64L627.917 444.928c-3.328-4.096-5.12-9.216-5.12-14.54v-23.553zM584.55 332.8h213.3c11.776 0 21.35-11.52 21.35-25.6 0-14.131-9.574-25.6-21.35-25.6h-213.3c-11.878.102-21.401 11.571-21.35 25.6 0 14.08 9.574 25.6 21.35 25.6zm0-102.4h213.3c11.776 0 21.35-11.469 21.35-25.6 0-14.08-9.574-25.6-21.35-25.6h-213.3a20.02 20.02 0 00-15.155 7.578 28.006 28.006 0 00-6.195 18.073c0 14.08 9.574 25.549 21.35 25.549zm0-102.451h213.3c11.776 0 21.35-11.469 21.35-25.6 0-14.08-9.574-25.549-21.35-25.549h-213.3c-11.878.102-21.401 11.571-21.35 25.6 0 14.08 9.574 25.6 21.35 25.6v-.051z" horiz-adv-x="1024"/><glyph glyph-name="hidden" unicode="" d="M503.091 76.8c-69.069 0-135.629 15.206-195.891 39.168l31.488 30.822a482.304 482.304 0 01164.454-29.542c244.634 0 428.135 198.144 428.135 257.74 0 35.84-65.536 121.703-171.418 184.474L789.76 588.8C899.84 522.24 972.8 431.616 972.8 374.989 972.8 276.992 754.33 76.8 503.091 76.8zm184.32 409.6c18.637-30.515 29.389-66.406 29.389-105.165A201.933 201.933 0 00514.202 179.2 202.854 202.854 0 00409.6 208.077l28.774 28.825c22.784-11.878 48.538-18.585 75.776-18.585 89.344 0 163.43 73.83 163.43 162.918 0 27.853-6.758 53.863-18.687 76.595l28.518 28.57zM238.694 82.637a19.866 19.866 0 10-28.057 28.057l574.669 574.67a19.866 19.866 0 1028.057-28.058L238.694 82.636zM335.667 281.6A202.086 202.086 0 00307.2 385.536 203.213 203.213 0 00511.078 588.8c37.581 0 72.96-10.189 103.322-27.955l-28.774-28.826a166.554 166.554 0 01-74.548 17.408 163.942 163.942 0 01-146.33-238.643l-29.08-29.184zm186.727 369.05c-247.655 0-429.568-198.503-429.568-258.304 0-35.687 65.024-120.935 170.137-183.808L232.96 179.2C123.597 245.76 51.2 335.923 51.2 392.346c0 98.201 219.136 298.854 471.194 298.854 68.505 0 134.502-14.848 194.406-38.4l-31.642-30.976a483.84 483.84 0 01-162.764 28.826z" horiz-adv-x="1024"/><glyph glyph-name="shown" unicode="" d="M512 691.2c230.4 0 460.8-207.667 460.8-307.2S742.4 76.8 512 76.8 51.2 286.31 51.2 384 281.6 691.2 512 691.2zm0-51.2c-179.866 0-409.6-171.725-409.6-256S332.134 128 512 128c180.634 0 409.6 170.496 409.6 256S692.634 640 512 640zm0-51.2a204.8 204.8 0 100-409.6 204.8 204.8 0 000 409.6zm0-51.2a153.6 153.6 0 110-307.2 153.6 153.6 0 010 307.2z" horiz-adv-x="1024"/><glyph glyph-name="logo-w" unicode="" d="M812.815 666.232l-3.403-4.035-3.404 3.674a409.72 409.72 0 01-244.705 120.772l-4.127.331v106.827l4.91-.361c134.023-13.583 254.855-76.348 340.69-175.074l5.663-6.626-8.674-.723a124.265 124.265 0 01-86.95-44.785zm189.741-155.979l5.632 6.235 1.898-8.072c8.643-35.238 13.161-72.282 13.161-111.556 0-77.1-18.823-153.42-54.212-222.057l-2.259-4.397-89.6 61.29 1.506 3.312a374.182 374.182 0 0136.503 161.852c0 22.74-1.867 44.755-6.024 67.163l-.722 4.758 5.24.362c35.027 1.837 66.65 16.534 88.847 41.11zM109.176 396.86c0-56.922 12.409-112.7 36.533-161.882l1.506-3.313-89.991-61.23-2.26 4.398C19.185 242.357.754 317.59.754 396.89c0 34.124 3.765 68.247 10.903 102.762l1.505 7.71 6.024-5.15a130.108 130.108 0 0185.474-32.678h11.294l-.753-5.12a372.254 372.254 0 01-6.024-67.524zm104.298 263.5l-3.765-4.036-3.403 4.427a129.897 129.897 0 01-82.432 50.628l-7.921 1.114 4.91 5.873c85.081 99.087 207.42 162.575 341.051 175.074l4.91.361V786.974l-4.127-.391c-96.015-11.355-185.223-56.863-249.223-126.254zm-19.577-504.652l2.62-3.313A405.414 405.414 0 01396.8 20.27l4.88-1.445-2.26-4.79a125.44 125.44 0 01-12.408-53.217c0-14.306 2.65-28.25 7.53-42.195l3.01-7.71-8.281 1.807C276.329-60.115 176.94 3.373 107.67 91.467l-3.012 3.675 89.208 60.566zM624.188 14.035l-2.259 4.789 4.91 1.445A403.757 403.757 0 01827.12 152.395l2.62 3.313 88.847-60.175-3.012-3.674a514.048 514.048 0 00-281.6-178.748l-8.282-1.838 3.012 7.71c4.91 13.945 7.53 27.89 7.53 42.195a119.266 119.266 0 01-12.048 52.857zm285.365 489.23c-49.303 0-89.6 38.913-89.6 87.342 0 48.49 39.906 87.371 89.6 87.371 49.303 0 89.6-38.882 89.6-87.34s-40.267-87.342-89.6-87.342zm-804.894 0c-49.333 0-89.6 38.943-89.6 87.342 0 48.49 39.906 87.371 89.6 87.371 49.694 0 89.6-38.882 89.6-87.34s-40.298-87.342-89.6-87.342zM512-126.494c-49.303 0-89.6 38.913-89.6 87.342 0 48.46 40.297 87.341 89.6 87.341s89.6-38.882 89.6-87.34c0-48.43-40.297-87.342-89.6-87.342zm125.38 606.66c-15.842-63.126-115.23-30.84-147.968-23.13l28.973 110.472c31.623-6.957 134.807-22.378 118.965-87.341zm-18.07-179.5c-18.071-69.723-137.036-31.925-175.828-22.378l31.624 122.217c38.038-9.517 162.274-27.888 144.173-99.81zm16.172 306.507l22.95 91.045-56.44 14.668-22.98-89.179c-15.06 4.036-29.756 6.626-45.568 10.632l22.98 89.178-56.471 13.583-23.733-91.015c-12.047 2.951-24.817 5.873-36.864 7.71L360.66 673.25l-15.06-59.09 41.803-9.548c22.95-5.873 26.715-20.18 26.715-31.925l-26.715-103.514c1.868-1.085 4.126-1.085 6.024-1.807-1.898 1.084-4.156 1.084-6.024 1.807l-37.285-146.794c-3.012-6.626-9.789-17.619-25.992-13.583 1.145-1.114-41.773 9.548-41.773 9.548l-29.003-63.85 73.426-17.649c13.945-4.036 26.745-6.626 40.66-10.631l-23.703-92.13 56.44-13.553 23.733 90.985c15.059-4.036 30.87-7.71 45.568-11.746l-23.733-89.9 56.47-13.584 23.703 92.13c97.521-17.619 169.804-10.662 200.674 74.48 24.847 68.67-1.144 109.388-52.706 134.717 38.792 7.71 66.62 31.925 74.542 81.468 10.902 67.916-41.412 103.876-112.942 128.09z" horiz-adv-x="1024"/><glyph glyph-name="down-arrow" unicode="" d="M82.93 876.957l580.03-541.534a27.507 27.507 0 0136.925 0l580.03 541.397a49.143 49.143 0 0067.026-71.872L766.91 263.824a125.862 125.862 0 00-171.251 0L15.835 805.084A49.143 49.143 0 0082.93 876.89zM219.576 318.29L670.74-26.19c4.983-3.822 16.245-3.822 21.296 0L1143.2 318.29a49.143 49.143 0 0059.45-78.083L751.76-104.275a118.695 118.695 0 00-140.742 0l-450.96 344.483a49.143 49.143 0 0059.519 78.083z" horiz-adv-x="1365"/><glyph glyph-name="up-arrow" unicode="" d="M82.944-108.954l580.13 541.628a27.511 27.511 0 0036.932 0l580.13-541.491a49.152 49.152 0 0167.038 71.885l-580.13 541.218a125.884 125.884 0 01-171.28 0L15.837-37.07a49.152 49.152 0 0167.106-71.885zm136.67 558.763l451.243 344.542c4.983 3.823 16.247 3.823 21.299 0l451.242-344.542a49.152 49.152 0 0159.46 78.097L751.89 872.448a118.716 118.716 0 01-140.766 0L160.085 527.906a49.152 49.152 0 0159.529-78.097z" horiz-adv-x="1365"/><glyph glyph-name="menu" unicode="" d="M315.077 423.385h590.77V384h-590.77zm-196.923 0h118.154V384H118.154zm0 275.692h787.692v-39.385H118.154zm0-551.385h787.692v-39.384H118.154z" horiz-adv-x="1024"/><glyph glyph-name="share-qzone" unicode="" d="M465.5 238.4l279.1-22.3-8.4 49.5 223.9 217.9-309.7 44.6-138.4 280-138.3-280L64 483.5l223.9-217.9L235-42.5l276.8 145.4L788.6-42.5l-43 252.6-419.8-18.4s-20.6 19.3 0 42.3c20.6 23.4 285 172.5 285 172.5L265.3 453l461.6 5.7s16.8-13.8 0-33.1c-16.1-19.2-261.4-187.2-261.4-187.2zm0 0" horiz-adv-x="1024"/><glyph glyph-name="share-linkedin" unicode="" d="M261.786 552.822V-47.606H61.85v600.428h199.936zm12.718 185.426c.414-29.497-9.785-54.134-30.597-73.913-20.813-19.773-48.175-29.675-82.09-29.7h-1.203c-33.116 0-59.78 9.901-79.994 29.7-20.22 19.805-30.31 44.437-30.29 73.913 0 29.885 10.403 54.625 31.216 74.22 20.813 19.599 47.98 29.398 81.506 29.398 33.53 0 60.385-9.8 80.578-29.399 20.188-19.594 30.49-44.334 30.904-74.22h-.03zM980.982 296.54V-47.606H781.629V273.51c0 42.42-8.181 75.643-24.545 99.656-16.358 24.013-41.922 36.04-76.662 36.06-25.44 0-46.745-6.963-63.907-20.9-17.168-13.926-29.983-31.2-38.467-51.804-4.444-12.129-6.671-28.487-6.671-49.09V-47.636H372.029c.8 161.146 1.199 291.819 1.199 391.992s-.21 159.954-.625 179.343l-.62 29.082h199.353v-87.25h-1.198c8.09 12.928 16.373 24.233 24.852 33.93 8.484 9.692 19.886 20.188 34.243 31.483 14.351 11.3 31.907 20.086 52.69 26.368 20.797 6.282 43.914 9.405 69.376 9.385 69.084 0 124.62-22.917 166.635-68.751 42.005-45.835 63.007-112.983 63.007-201.442l.04.036z" horiz-adv-x="1024"/><glyph glyph-name="share-vk" unicode="" d="M1090 660.6c7.4 25 0 43.4-35.6 43.4H936.6c-30 0-43.8-15.8-51.2-33.4 0 0-60-146.2-144.8-241-27.4-27.4-40-36.2-55-36.2-7.4 0-18.8 8.8-18.8 33.8v233.4c0 30-8.4 43.4-33.2 43.4H448.4c-18.8 0-30-14-30-27 0-28.4 42.4-35 46.8-115V388.4c0-38-6.8-45-21.8-45-40 0-137.2 146.8-194.8 314.8-11.6 32.6-23 45.8-53.2 45.8H77.6c-33.6 0-40.4-15.8-40.4-33.4 0-31.2 40-186.2 186.2-391C320.8 139.8 458 64 582.8 64c75 0 84.2 16.8 84.2 45.8 0 133.6-6.8 146.2 30.8 146.2 17.4 0 47.4-8.8 117.4-76.2 80-80 93.2-115.8 138-115.8H1071c33.6 0 50.6 16.8 40.8 50-22.4 69.8-173.8 213.4-180.6 223-17.4 22.4-12.4 32.4 0 52.4.2.2 144 202.6 158.8 271.2z" horiz-adv-x="1152"/><glyph glyph-name="share-reddit" unicode="" d="M912 404c0 56-44 100-100 100-24 0-48-8-64-24-60 36-132 60-216 64l44 160 136-40c0-44 36-80 80-80s80 36 80 80-36 80-80 80c-28 0-56-16-68-40l-160 40c-12 4-20-4-24-16l-48-184c-80-4-156-28-216-64-16 16-40 24-64 24-56 0-100-44-100-100 0-36 16-64 44-84l-4-36c0-144 160-260 360-260s360 116 360 260l-4 36c28 20 44 48 44 84m-520-12c28 0 48-24 48-48s-20-48-48-48-48 20-48 48 20 48 48 48m272-216c-72-44-232-44-304 0-8 8-12 20-4 28s20 12 28 4c48-36 208-36 256 0 8 8 20 4 28-4s4-20-4-28m-32 120c-28 0-48 24-48 48 0 28 24 48 48 48 28 0 48-24 48-48 0-28-20-48-48-48z" horiz-adv-x="1024"/><glyph glyph-name="warning2" unicode="" d="M0 384a512 512 0 111024 0A512 512 0 110 384zm512 307.2q25.6 0 25.6-25.6V256q0-25.6-25.6-25.6T486.4 256v409.6q0 25.6 25.6 25.6zM460.8 76.8a51.2 51.2 0 11102.4 0 51.2 51.2 0 11-102.4 0z" horiz-adv-x="1024"/><glyph glyph-name="info2" unicode="" d="M512-128a512 512 0 100 1024 512 512 0 000-1024zm0 682.667A42.667 42.667 0 01469.333 512V85.333a42.667 42.667 0 0185.334 0V512A42.667 42.667 0 01512 554.667zM512 640a42.667 42.667 0 110 85.333A42.667 42.667 0 01512 640z" horiz-adv-x="1024"/><glyph glyph-name="tuoguan" unicode="" d="M858.016 250.368c-30.496-24.992-68.512-42.944-117.12-58.144-14.048-4.384-28.544-8.448-46.272-13.056-6.56-1.696-34.656-8.8-41.632-10.624a32 32 0 00-16.224 61.92c7.328 1.92 35.52 9.024 41.792 10.656a897.6 897.6 0 0143.264 12.192c41.44 12.96 72.576 27.648 95.68 46.56 84.16 68.96 160.224 55.52 203.552-38.592l8.48-18.432-13.024-15.52C872.288 55.424 748.128-32 640-32L91.744-47.2a32 32 0 000 64L640 32c80.96 0 186.72 72.512 313.664 220.16-22.72 37.312-49.088 36.32-95.648-1.792zM93.12 105.792a32 32 0 10-64 1.088L32.224 288l8.416 8.96c85.152 90.944 169.44 131.904 252.416 118.624 62.72-10.016 98.176-29.568 147.424-71.584l6.944-5.952c21.312-18.208 32.736-26.784 47.616-34.688 11.264-6.016 26.016-9.6 45.888-11.52 9.024-.928 15.808-1.28 33.536-2.016 73.28-3.104 102.4-13.056 102.4-65.824 0-72-47.36-117.696-132.32-132.032-55.936-9.44-137.024 12.32-246.56 63.616a32 32 0 1027.168 57.952c98.56-46.176 169.248-65.12 208.736-58.464 55.296 9.344 78.016 30.336 78.944 66.56-6.848 2.24-17.184 3.2-41.056 4.224a602.56 602.56 0 00-37.056 2.24c-27.488 2.688-49.856 8.16-69.76 18.784-20.096 10.688-34.496 21.472-59.104 42.528l-6.912 5.888c-41.088 35.072-66.784 49.248-116 57.12-56.224 8.96-118.464-19.84-187.168-90.368L93.12 105.792zM224 526.272a32 32 0 10-64 0V672a64 64 0 0064 64h608a64 64 0 0064-64V480a64 64 0 00-64-64H489.44a32 32 0 100 64H832v192H224V526.272z" horiz-adv-x="1029"/><glyph glyph-name="copy" unicode="" d="M153.6 742.4h563.2A102.4 102.4 0 00819.2 640V-25.6A102.4 102.4 0 00716.8-128H153.6A102.4 102.4 0 0051.2-25.6V640a102.4 102.4 0 00102.4 102.4zm0-51.2a51.2 51.2 0 01-51.2-51.2V-25.6a51.2 51.2 0 0151.2-51.2h563.2A51.2 51.2 0 01768-25.6V640a51.2 51.2 0 01-51.2 51.2H153.6zM870.4 25.6v51.2a51.2 51.2 0 0151.2 51.2v665.6a51.2 51.2 0 01-51.2 51.2H307.2a51.2 51.2 0 01-51.2-51.2h-51.2A102.4 102.4 0 00307.2 896h563.2a102.4 102.4 0 00102.4-102.4V128A102.4 102.4 0 00870.4 25.6zm-640 563.2H640q25.6 0 25.6-25.6T640 537.6H230.4q-25.6 0-25.6 25.6t25.6 25.6zm0-153.6H640q25.6 0 25.6-25.6T640 384H230.4q-25.6 0-25.6 25.6t25.6 25.6zm0-153.6H640q25.6 0 25.6-25.6T640 230.4H230.4q-25.6 0-25.6 25.6t25.6 25.6zm0-153.6H640q25.6 0 25.6-25.6T640 76.8H230.4q-25.6 0-25.6 25.6t25.6 25.6z" horiz-adv-x="1024"/><glyph glyph-name="qrcode" unicode="" d="M448.512 448.666H1.332v447.18h447.18v-447.18zM67.635 514.97h314.573v314.572H67.635V514.97zm114.176 210.688h88.423v-88.372H181.81v88.372zm266.752-851.61H1.28v447.18h447.232v-447.18zM67.635-59.648h314.573v314.624H67.635V-59.597zM181.811 151.04h88.423V62.669H181.81v88.371zm838.4 297.626h-447.18v447.18h447.18v-447.18zM639.283 514.97h314.624v314.572H639.334V514.97zm113.51 210.688h88.372v-88.372h-88.371v88.372zM763.086-.717h66.304v-124.467h-66.304V-.717zm190.822 5.171h66.304v-130.406h-66.355V4.454zM639.334-125.184H573.03V321.28h256.36V140.032h124.518v176.794h66.304V73.728H763.085v181.248h-123.75z" horiz-adv-x="1024"/><glyph glyph-name="calculator" unicode="" d="M170.667 896h682.666a113.778 113.778 0 00113.778-113.778V-14.222A113.778 113.778 0 00853.333-128H170.667A113.778 113.778 0 0056.889-14.222v796.444A113.778 113.778 0 00170.667 896zm56.889-113.778a56.889 56.889 0 01-56.89-56.889V611.556a56.889 56.889 0 0156.89-56.89h568.888a56.889 56.889 0 0156.89 56.89v113.777a56.889 56.889 0 01-56.89 56.89H227.556zm0-455.11a56.889 56.889 0 110 113.777 56.889 56.889 0 010-113.778zm284.444 0a56.889 56.889 0 110 113.777 56.889 56.889 0 010-113.778zm284.444 0a56.889 56.889 0 110 113.777 56.889 56.889 0 010-113.778zM227.556 156.443a56.889 56.889 0 110 113.778 56.889 56.889 0 010-113.778zm284.444 0a56.889 56.889 0 110 113.778 56.889 56.889 0 010-113.778zm284.444 0a56.889 56.889 0 110 113.778 56.889 56.889 0 010-113.778zM227.556-14.222a56.889 56.889 0 110 113.778 56.889 56.889 0 010-113.778zm284.444 0a56.889 56.889 0 110 113.778 56.889 56.889 0 010-113.778zm284.444 0a56.889 56.889 0 110 113.778 56.889 56.889 0 010-113.778z" horiz-adv-x="1024"/><glyph glyph-name="share-account" unicode="" d="M1020.62 126.566A129.946 129.946 0 00890.83-3.226a129.946 129.946 0 00-129.843 129.792 129.946 129.946 0 00147.61 128.615 403.763 403.763 0 01-185.55 424.857 26.112 26.112 0 0027.341 44.39 455.526 455.526 0 00207.821-486.962 130.304 130.304 0 0062.413-110.9zm-129.791 77.62c-42.803 0-77.62-34.816-77.62-77.62s34.817-77.619 77.62-77.619c42.752 0 77.568 34.816 77.568 77.62s-34.816 77.619-77.568 77.619zM685.619-89.498a455.22 455.22 0 00-175.104-34.713c-120.32 0-238.08 48.793-323.584 134.093A129.946 129.946 0 00.358 126.618 129.946 129.946 0 00130.253 256.41a129.946 129.946 0 00129.792-129.844c0-31.13-11.11-60.979-31.437-84.48A409.293 409.293 0 01510.515-72.038a403.712 403.712 0 01155.136 30.72 26.06 26.06 0 0019.968-48.23zM130.253 204.186c-42.803 0-77.62-34.816-77.62-77.62s34.817-77.619 77.62-77.619c42.752 0 77.619 34.816 77.619 77.62s-34.816 77.619-77.62 77.619zm380.262 432.128a129.792 129.792 0 00-121.702 84.838 402.022 402.022 0 01-283.136-358.144 26.266 26.266 0 00-26.112-24.269l-1.741.051a25.907 25.907 0 00-24.32 27.853 458.957 458.957 0 00327.424 406.63A130.867 130.867 0 00510.464 895.95a129.946 129.946 0 00129.792-129.792 129.946 129.946 0 00-129.792-129.843zm0 207.462c-42.803 0-77.619-34.816-77.619-77.62s34.816-77.618 77.62-77.618 77.618 34.816 77.618 77.619-34.816 77.619-77.619 77.619zM512 230.4a153.6 153.6 0 110 307.2 153.6 153.6 0 010-307.2zm0 51.2a102.4 102.4 0 100 204.8 102.4 102.4 0 000-204.8zM710.349 128h-53.504a153.651 153.651 0 01-289.69 0h-53.504a204.902 204.902 0 00396.698 0z" horiz-adv-x="1024"/><glyph glyph-name="remark" unicode="" d="M85.438-48.258v893.773c0 27.1 22.231 49.682 48.879 49.682h755.366c26.648 0 48.88-20.375 48.88-49.682V-57.09a49.682 49.682 0 00-48.88-49.632c-2.208 0-6.674 0-8.882 2.258L512 30.932 292.597-49.613V13.87l208.262 75.727a30.361 30.361 0 0020.074 0L880.8-41.283h-2.208v877.765H140.99V-39.225l-50.434-9.033h-5.12zM63.106-77.816a50.184 50.184 0 11100.368 0 50.184 50.184 0 11-100.368 0zm22.332 95.6h55.704V-82.584H85.438zm183.622 620.12h493.91c15.656 0 29.055 13.55 29.055 29.358a29.709 29.709 0 01-29.056 29.308H269.111a29.709 29.709 0 01-29.057-29.308c0-15.808 13.4-29.357 29.057-29.357zm0-196.318h366.543c15.607 0 29.056 13.55 29.056 29.357a29.709 29.709 0 01-29.107 29.308H269.111a29.709 29.709 0 01-29.057-29.308c0-15.807 13.4-29.357 29.057-29.357z" horiz-adv-x="1024"/><glyph glyph-name="check-box" unicode="" d="M810.667 768H213.333C166.4 768 128 729.6 128 682.667V85.333C128 38.4 166.4 0 213.333 0h597.334C857.6 0 896 38.4 896 85.333v597.334C896 729.6 857.6 768 810.667 768zm-384-597.333L213.333 384l59.734 59.733 153.6-153.6L750.933 614.4l59.734-59.733-384-384z" horiz-adv-x="1024"/><glyph glyph-name="lock" unicode="" d="M204.8 486.4v102.4a307.2 307.2 0 00614.4 0V486.4h102.4V363.52C921.6 92.058 786.33-128 512-128c-274.33 0-409.6 220.058-409.6 491.52V486.4h102.4zm102.4 0h409.6v102.4H307.2V486.4zM204.8 384c0-226.304 57.446-409.6 307.2-409.6S819.2 157.696 819.2 384H204.8zM512 179.2a51.2 51.2 0 100 102.4 51.2 51.2 0 000-102.4zM307.2 588.8h409.6a204.8 204.8 0 01-409.6 0z" horiz-adv-x="1024"/><glyph glyph-name="payment-id" unicode="" d="M894.874 588.8L854.63 739.02c-7.321 27.342-32.921 44.186-57.19 37.684L94.054 588.288c-24.268-6.554-38.041-33.946-30.72-61.286l20.48-76.288-49.459-13.312-20.48 76.339C-.717 568.37 27.238 623.309 76.39 636.518l712.192 190.823c49.152 13.158 100.864-20.429 115.508-75.06L947.917 588.8h-53.043zM194.56 537.6h737.28c50.893 0 92.16-45.824 92.16-102.4V25.6c0-56.576-41.267-102.4-92.16-102.4H194.56c-50.893 0-92.16 45.824-92.16 102.4v409.6c0 56.576 41.267 102.4 92.16 102.4zm4.557-51.2c-25.14 0-45.517-22.938-45.517-51.2V25.6c0-28.262 20.378-51.2 45.517-51.2h728.115c25.14 0 45.517 22.938 45.517 51.2v409.6c0 28.262-20.378 51.2-45.517 51.2H199.168zm82.483-256h204.8q25.6 0 25.6-25.6t-25.6-25.6H281.6q-25.6 0-25.6 25.6t25.6 25.6zm0-102.4h204.8q25.6 0 25.6-25.6t-25.6-25.6H281.6q-25.6 0-25.6 25.6t25.6 25.6zm435.2 307.2h102.4a102.4 102.4 0 00102.4-102.4v-51.2a102.4 102.4 0 00-102.4-102.4H716.8a102.4 102.4 0 00-102.4 102.4v51.2a102.4 102.4 0 00102.4 102.4zm0-51.2a51.2 51.2 0 01-51.2-51.2v-51.2a51.2 51.2 0 0151.2-51.2h102.4a51.2 51.2 0 0151.2 51.2v51.2a51.2 51.2 0 01-51.2 51.2H716.8z" horiz-adv-x="1024"/><glyph glyph-name="invitation-code" unicode="" d="M253.44 640h-52.992A76.8 76.8 0 0151.2 614.4v-512a76.8 76.8 0 01149.248-25.6h52.992A128 128 0 000 102.4v512A128 128 0 00253.44 640zM213.504 76.8h56.218A102.4 102.4 0 01358.4 25.6h512A102.4 102.4 0 01972.8 128v460.8a102.4 102.4 0 01-102.4 102.4h-512a102.4 102.4 0 01-88.678-51.2h-56.218A153.651 153.651 0 00358.4 742.4h512A153.6 153.6 0 001024 588.8V128A153.6 153.6 0 00870.4-25.6h-512A153.651 153.651 0 00213.504 76.8zM204.8 640H256V486.4h-51.2zm0-204.8H256V281.6h-51.2zm0-204.8H256V76.8h-51.2zm537.6-25.6H896q25.6 0 25.6-25.6T896 153.6H742.4q-25.6 0-25.6 25.6t25.6 25.6zM844.8 256V102.4q0-25.6-25.6-25.6t-25.6 25.6V256q0 25.6 25.6 25.6t25.6-25.6zm-281.6 76.8a153.6 153.6 0 110 307.2 153.6 153.6 0 010-307.2zm0 51.2a102.4 102.4 0 100 204.8 102.4 102.4 0 000-204.8zm256-204.8H768h51.2zm-256 157.696c-86.835-11.06-153.6-77.466-153.6-157.696h-51.2c0 105.42 89.6 192.256 204.8 203.571v-45.875zM358.4 179.2h230.4a25.6 25.6 0 100-51.2H384a25.6 25.6 0 00-25.6 25.6v25.6z" horiz-adv-x="1024"/><glyph glyph-name="announcement" unicode="" d="M449.024-72.476c-11.89 13.767-13.141 25.372-3.812 34.93 9.387 9.5 21.163 7.964 35.272-4.552 21.845-22.585 44.657-12.117 44.657 31.517V778.58c0 43.634-22.812 54.102-44.714 31.403L292.01 616.05a43.804 43.804 0 00-31.346-13.255H87.495v-437.59h173.17a43.804 43.804 0 0031.346-13.255l98.873-101.774c24.86-26.795-7.851-53.134-31.403-30.492l-98.816 101.774H87.495a43.804 43.804 0 00-43.747 43.747v437.59a43.804 43.804 0 0043.804 43.804h173.113l188.359 193.82c47.673 49.55 119.865 23.439 119.865-61.838V-10.58c0-85.334-72.192-111.332-119.865-61.895zm191.716 747.52a21.902 21.902 0 1031.288 30.549 482.19 482.19 0 00137.558-337.977c0-112.071-38.23-218.396-107.008-303.673A21.902 21.902 0 10668.5 91.42a438.215 438.215 0 0197.28 276.196c0 116.622-45.397 225.849-125.041 307.428zm175.502 174.592a21.902 21.902 0 0030.435 31.46C990.151 742.4 1072.128 555.747 1072.128 356.75c0-172.771-61.724-336.611-172.942-468.195a21.902 21.902 0 10-33.45 28.217C970.41 40.619 1028.38 194.446 1028.38 356.75c0 186.937-77.027 362.269-212.138 492.886z" horiz-adv-x="1080"/><glyph glyph-name="v-ga" unicode="" d="M914.74 700.16l-44.852-25.856A460.8 460.8 0 11972.8 384h51.2c0-282.778-229.222-512-512-512S0 101.222 0 384s229.222 512 512 512a511.078 511.078 0 00402.74-195.84zM460.8 384a51.2 51.2 0 11102.4 0 51.2 51.2 0 11-102.4 0zm51.2 25.6h512V384l-47.411-25.6H512z" horiz-adv-x="1024"/><glyph glyph-name="v-sms" unicode="" d="M215.296 509.952c0 30.413 24.013 55.091 53.606 55.091s53.658-24.678 53.658-55.091-24.064-55.04-53.606-55.04c-29.594 0-53.607 24.627-53.607 55.04zm294.758-55.04c-29.593 0-53.555 24.627-53.555 55.04s23.962 55.091 53.555 55.091c29.645 0 53.607-24.678 53.607-55.091s-23.962-55.04-53.607-55.04zm241.152 110.08c29.696 0 53.658-24.627 53.658-55.04s-24.013-55.04-53.606-55.04-53.607 24.627-53.607 55.04 24.064 55.091 53.607 55.091zm160.87-437.965H805.12c-14.848 0-26.778 9.933-26.778 25.19 0 15.156 11.93 25.089 26.778 25.089h106.957c29.491 0 58.368 27.084 58.368 57.446v550.4c0 30.362-28.877 59.904-58.368 59.904H103.322c-29.543 0-53.607-29.542-53.607-59.904v-550.4c0-30.362 28.877-57.446 58.368-57.446H563.61c7.116 0 13.926-2.919 18.944-8.09L823.808-76.032c10.445-10.752 10.445-28.16 0-38.912a26.368 26.368 0 00-37.888 0L552.448 127.027H108.186A106.752 106.752 0 00.973 234.752v550.4C.922 845.978 49.05 895.334 108.134 895.334h803.943c59.085 0 107.161-49.356 107.161-110.08v-550.4c0-60.774-48.128-107.776-107.161-107.776z" horiz-adv-x="1024"/><glyph glyph-name="v-email" unicode="" d="M51.2 572.774l-2.714 2.56V5.632c0-20.122 17.306-36.506 38.503-36.506H885.81c21.197 0 38.503 16.384 38.503 36.506V358.4c0 6.093 2.56 11.93 7.116 16.23a24.934 24.934 0 0017.101 6.708c6.451 0 12.647-2.407 17.152-6.708a22.374 22.374 0 007.117-16.281V5.683c0-45.465-39.014-82.432-87.04-82.432H87.04C38.963-76.8 0-39.834 0 5.632v756.736C0 807.834 39.014 844.8 87.04 844.8h798.72c48.026 0 87.04-36.966 87.04-82.432V630.784c0-.768 0-1.536-.102-2.253l-.154-.973-.205-1.28-.307-1.075-.307-1.075-.359-1.075-.41-1.024-.511-1.024-.512-1.024-.512-.922-.717-1.024-.717-.973-.665-.819-1.536-1.587-.103-.102-44.083-41.78v64.973l2.714 2.56v122.061c0 20.122-17.306 36.506-38.503 36.506H86.99c-21.197 0-38.503-16.384-38.503-36.506v-122.06l2.714-2.56v-65.025zM230.4 640h256q25.6 0 25.6-25.6t-25.6-25.6h-256q-25.6 0-25.6 25.6t25.6 25.6zm0-153.6h256q25.6 0 25.6-25.6t-25.6-25.6h-256q-25.6 0-25.6 25.6t25.6 25.6zm131.084-171.68L578.707 97.497q18.102-18.102 0-36.204t-36.204 0L325.28 278.516q-18.102 18.102 0 36.204t36.204 0zM545.075 95.642l434.483 434.483a25.6 25.6 0 0036.199-36.25L581.325 59.443a25.6 25.6 0 00-36.25 36.199z" horiz-adv-x="1024"/><glyph glyph-name="mobile" unicode="" d="M757.76-128H266.24C175.77-128 102.4-57.446 102.4 29.542v708.916C102.4 825.498 175.77 896 266.24 896h491.52c90.47 0 163.84-70.554 163.84-157.542V29.542c0-83.712-67.891-152.166-153.6-157.235v51.815c25.6 3.174 49.613 14.49 68.096 32.41C858.061-22.17 870.4 6.757 870.4 36.914v694.221c0 30.157-12.34 59.085-34.304 80.384a119.142 119.142 0 01-82.944 33.28H270.848c-31.078 0-60.928-11.98-82.944-33.28-21.965-21.35-34.304-50.278-34.304-80.435V36.864c0-30.157 12.34-59.085 34.304-80.384 22.016-21.35 51.866-33.331 82.944-33.331H614.4v-51.2h143.36zM513.28-25.6A102.4 102.4 0 10614.4 76.8 101.786 101.786 0 00513.28-25.6zm-.717 153.6a51.2 51.2 0 11-1.126-102.4 51.2 51.2 0 011.126 102.4zM384 793.6h256q25.6 0 25.6-25.6T640 742.4H384q-25.6 0-25.6 25.6t25.6 25.6z" horiz-adv-x="1024"/><glyph glyph-name="password" unicode="" d="M741.33 639.843h-.36a230.353 230.353 0 01-457.94 0h-1.383V537.464h-51.19v102.38h1.127a281.543 281.543 0 00560.167 6.142 25.646 25.646 0 10-50.422-6.143zM435.215 486.275a25.595 25.595 0 10.358 51.19h357.969a153.569 153.569 0 00153.568-153.57V25.57A153.569 153.569 0 00793.543-128H230.457A153.569 153.569 0 0076.89 25.569v358.327a153.569 153.569 0 00153.568 153.568h51.19v-51.19h-51.19a102.38 102.38 0 01-102.379-102.378V25.569a102.38 102.38 0 01102.38-102.38h563.085A102.38 102.38 0 01895.922 25.57v358.327a102.38 102.38 0 01-102.38 102.379H435.217zM512 281.516q25.595 0 25.595-25.594V102.353q0-25.595-25.595-25.595t-25.595 25.595v153.569q0 25.594 25.595 25.594z" horiz-adv-x="1024"/><glyph glyph-name="mobile-or-email" unicode="" d="M491.52-128H122.88C55.04-128 0-57.446 0 29.542v708.916C0 825.498 55.04 896 122.88 896h368.64c67.84 0 122.88-70.554 122.88-157.542V29.542c0-78.08-44.288-142.848-102.4-155.34v57.958c9.882 5.632 18.944 13.824 26.624 24.371 15.77 21.3 24.576 50.227 24.576 80.384v694.221c0 30.157-8.806 59.085-24.576 80.384-15.616 21.3-36.915 33.28-59.136 33.28H134.963c-22.22 0-43.52-11.98-59.238-33.28C60.006 790.118 51.2 761.19 51.2 731.034V36.864c0-30.157 8.806-59.085 24.576-80.384 15.667-21.35 36.966-33.331 59.187-33.331H358.4v-51.2h133.12zM307.712 128a51.2 51.2 0 10-47.667-31.232A51.2 51.2 0 00307.763 128zM230.4 793.6H384q25.6 0 25.6-25.6T384 742.4H230.4q-25.6 0-25.6 25.6t25.6 25.6zm384-256h256A153.6 153.6 0 001024 384V179.2A153.6 153.6 0 00870.4 25.6h-256v51.2h256a102.4 102.4 0 01102.4 102.4V384a102.4 102.4 0 01-102.4 102.4h-256v51.2zm-51.2-221.235v67.584l128-90.88 192.512 136.653a23.398 23.398 0 0034.714-9.165l2.764-5.94a25.6 25.6 0 00-8.345-31.743L705.843 235.93a23.296 23.296 0 00-14.643-4.301 23.296 23.296 0 00-14.643 4.25L563.2 316.415z" horiz-adv-x="1024"/><glyph glyph-name="username" unicode="" d="M353.792-74.803H114.534c0 210.073 178.484 381.286 397.568 381.286 169.728 0 307.661 132.301 307.661 295.117C819.712 763.7 681.78 896 512 896c-169.626 0-307.558-132.3-307.558-294.4 0-57.088 16.896-112.23 49.356-159.54a302.49 302.49 0 01110.234-97.996c-85.862-29.184-162.97-82.38-218.42-151.757A424.909 424.909 0 0151.61-74.24V-128h302.284v53.197zm-85.811 676.352c0 129.075 109.568 234.137 244.121 234.137 134.554 0 244.07-105.062 244.07-234.086 0-129.075-109.567-234.138-244.07-234.138C377.55 366.797 267.981 471.91 267.981 601.6zm541.645-338.483h.665l-18.944 13.619a33.178 33.178 0 01-18.944 6.451 32.563 32.563 0 01-24.985-11.674 29.491 29.491 0 016.041-42.803C852.89 156.058 909.67 45.16 909.67-74.189H671.693V-128H973.26v53.811c-.717 131.021-59.546 252.928-163.635 337.255z" horiz-adv-x="1024"/><glyph glyph-name="email" unicode="" d="M998.502 381.286a27.034 27.034 0 01-18.073-6.707 21.862 21.862 0 01-7.475-16.23V5.632c0-20.122-18.176-36.506-40.55-36.506H91.647c-22.374 0-40.55 16.384-40.55 36.506v569.702l396.185-356.556c17.152-15.514 40.448-24.218 64.768-24.167 24.474 0 47.463 8.55 64.768 24.167l439.757 395.776.102.102a26.624 26.624 0 011.536 1.536l.768.87.768.973.717 1.024.563.87.564 1.076.512 1.024.41 1.024.409 1.024.358 1.126.256 1.075.256 1.28.103.973a19.968 19.968 0 01.102 2.253v131.584c0 45.466-41.062 82.432-91.597 82.432H91.648C41.062 844.8 0 807.834 0 762.368V5.632C0-39.834 41.062-76.8 91.597-76.8h840.755c50.483 0 91.597 36.966 91.597 82.432v352.666a21.862 21.862 0 01-7.475 16.281 27.034 27.034 0 01-18.023 6.707zM91.597 798.874h840.755c22.374 0 40.55-16.384 40.55-36.506v-122.06l-432.281-389.07a42.598 42.598 0 00-28.672-10.7 42.65 42.65 0 00-28.672 10.752L51.047 640.256v122.112c0 20.122 18.175 36.506 40.55 36.506z" horiz-adv-x="1024"/><glyph glyph-name="v-password" unicode="" d="M741.33 639.843h-.36a230.353 230.353 0 01-457.94 0h-1.383V537.464h-51.19v102.38h1.127a281.543 281.543 0 00560.167 6.142 25.646 25.646 0 10-50.422-6.143zM435.215 486.275a25.595 25.595 0 10.358 51.19h357.969a153.569 153.569 0 00153.568-153.57V25.57A153.569 153.569 0 00793.543-128H230.457A153.569 153.569 0 0076.89 25.569v358.327a153.569 153.569 0 00153.568 153.568h51.19v-51.19h-51.19a102.38 102.38 0 01-102.379-102.378V25.569a102.38 102.38 0 01102.38-102.38h563.085A102.38 102.38 0 01895.922 25.57v358.327a102.38 102.38 0 01-102.38 102.379H435.217zM470.792 29.51a25.492 25.492 0 00-10.903 6.501L315.125 180.775a25.595 25.595 0 0036.191 36.191L480.928 87.354l236.547 236.547a25.595 25.595 0 1036.19-36.19L500.279 34.321a25.595 25.595 0 00-29.486-4.812z" horiz-adv-x="1024"/><glyph glyph-name="new-password" unicode="" d="M741.33 639.843h-.36a230.353 230.353 0 01-457.94 0h-1.383V537.464h-51.19v102.38h1.127a281.543 281.543 0 00560.167 6.142 25.646 25.646 0 10-50.422-6.143zM435.215 486.275a25.595 25.595 0 10.358 51.19h357.969a153.569 153.569 0 00153.568-153.57V25.57A153.569 153.569 0 00793.543-128H230.457A153.569 153.569 0 0076.89 25.569v358.327a153.569 153.569 0 00153.568 153.568h51.19v-51.19h-51.19a102.38 102.38 0 01-102.379-102.378V25.569a102.38 102.38 0 01102.38-102.38h563.085A102.38 102.38 0 01895.922 25.57v358.327a102.38 102.38 0 01-102.38 102.379H435.217zM512 332.706q25.595 0 25.595-25.595V51.163q0-25.594-25.595-25.594t-25.595 25.594v255.948q0 25.595 25.595 25.595zm153.569-153.569q0-25.594-25.595-25.594H384.026q-25.595 0-25.595 25.594 0 25.595 25.595 25.595h255.948q25.595 0 25.595-25.595z" horiz-adv-x="1024"/><glyph glyph-name="hashrate" unicode="" d="M998.4 537.6V2.048c-.205-70.4-56.627-127.488-126.31-127.693H177.51C107.827-125.44 51.405-68.352 51.2 2.048v766.26c.205 70.45 56.627 127.487 126.31 127.692h694.58c69.683-.205 126.105-57.242 126.31-127.693V640h-896V-9.728c.051-35.891 29.184-65.024 65.024-65.024h714.752A65.178 65.178 0 01947.2-9.728l-.051 547.328H998.4zm-51.2 154.47v87.706a65.178 65.178 0 01-65.024 65.024H167.424a65.178 65.178 0 01-65.024-65.024V692.07h844.8zm-160.512-435.2c-54.272 0-95.744-41.472-95.744-95.744s41.472-95.744 95.744-95.744 95.744 41.472 95.744 95.744c0 54.324-41.472 95.744-95.744 95.744zm47.616-97.28a46.08 46.08 0 10-92.16 0 46.08 46.08 0 0092.16 0zm-47.616 353.28c-54.272 0-95.744-41.472-95.744-95.744s41.472-95.795 95.744-95.795 95.744 41.472 95.744 95.744-41.472 95.795-95.744 95.795zm47.616-97.28a46.08 46.08 0 10-92.16 0 46.08 46.08 0 0092.16 0zM530.688 256.87c-54.272 0-95.744-41.472-95.744-95.744s41.472-95.744 95.744-95.744 95.744 41.472 95.744 95.744c0 54.324-41.472 95.744-95.744 95.744zm47.616-97.28a46.08 46.08 0 10-92.16 0 46.08 46.08 0 0092.16 0zm-47.616 353.28c-54.272 0-95.744-41.472-95.744-95.744s41.472-95.795 95.744-95.795 95.744 41.472 95.744 95.744-41.472 95.795-95.744 95.795zm47.616-97.28a46.08 46.08 0 10-92.16 0 46.08 46.08 0 0092.16 0zM274.688 256.87c-54.272 0-95.744-41.472-95.744-95.744s41.472-95.744 95.744-95.744 95.744 41.472 95.744 95.744c0 54.324-41.472 95.744-95.744 95.744zm47.616-97.28a46.08 46.08 0 10-92.16 0 46.08 46.08 0 0092.16 0zm-47.616 353.28c-54.272 0-95.744-41.472-95.744-95.744s41.472-95.795 95.744-95.795 95.744 41.472 95.744 95.744-41.472 95.795-95.744 95.795zm47.616-97.28a46.08 46.08 0 10-92.16 0 46.08 46.08 0 0092.16 0z" horiz-adv-x="1024"/><glyph glyph-name="amount" unicode="" d="M51.2 742.4V25.6H0v716.8h51.2zm921.6 0h51.2V25.6h-51.2v716.8zM512 588.8c282.778 0 512 68.762 512 153.6S794.778 896 512 896 0 827.238 0 742.4s229.222-153.6 512-153.6zm0 51.2c-252.826 0-460.8 62.413-460.8 102.4 0 39.987 207.974 102.4 460.8 102.4s460.8-62.413 460.8-102.4C972.8 702.413 764.826 640 512 640zm512-614.4C1024-59.238 794.778-128 512-128S0-59.238 0 25.6h51.2C51.2-14.387 259.174-76.8 512-76.8S972.8-14.387 972.8 25.6h51.2zm0 238.95c0-84.838-229.222-153.6-512-153.6S0 179.712 0 264.55h51.2c0-40.038 207.974-102.4 460.8-102.4s460.8 62.362 460.8 102.4h51.2zm0 238.9c0-84.839-229.222-153.6-512-153.6S0 418.61 0 503.45h51.2c0-39.988 207.974-102.4 460.8-102.4s460.8 62.412 460.8 102.4h51.2z" horiz-adv-x="1024"/><glyph glyph-name="withdraw" unicode="" d="M1024 332.8h-51.2v102.4a102.4 102.4 0 01-102.4 102.4H153.6A102.4 102.4 0 0151.2 435.2V25.6A102.4 102.4 0 01153.6-76.8h716.8A102.4 102.4 0 01972.8 25.6V128h51.2V25.6A153.6 153.6 0 00870.4-128H153.6A153.6 153.6 0 000 25.6v409.6a153.6 153.6 0 00153.6 153.6h716.8A153.6 153.6 0 001024 435.2V332.8zm0 51.2v-51.2H870.4a102.4 102.4 0 110-204.8H1024V76.8H870.4a153.6 153.6 0 000 307.2H1024zm-51.2-204.8h51.2V128h-51.2v51.2zm-84.122 474.47h-59.136L748.8 793.6a102.4 102.4 0 01-139.878 37.53l-307.2-177.408H204.8a150.048 150.048 0 0023.808 16.896l354.714 204.8A153.6 153.6 0 00793.088 819.2l95.54-165.478zM793.6 230.4a51.2 51.2 0 11102.4 0 51.2 51.2 0 11-102.4 0z" horiz-adv-x="1024"/><glyph glyph-name="number1" unicode="" d="M512-128c282.778 0 512 229.222 512 512S794.778 896 512 896 0 666.778 0 384s229.222-512 512-512zm0 51.2a460.8 460.8 0 100 921.6 460.8 460.8 0 000-921.6zM542.925 640H588.8V128.205h-58.778V568.32c-32.256-32.973-72.396-55.91-120.422-70.246v58.777a304.64 304.64 0 0171.68 30.823A296.806 296.806 0 01542.925 640z" horiz-adv-x="1024"/><glyph glyph-name="number4" unicode="" d="M512-128c282.778 0 512 229.222 512 512S794.778 896 512 896 0 666.778 0 384s229.222-512 512-512zm0 51.2a460.8 460.8 0 100 921.6 460.8 460.8 0 000-921.6zM565.248 640h55.194V292.352h83.148v-48.026h-83.148V128.205h-55.91v116.121H307.2v55.91L565.248 640zm-2.867-76.698l-205.722-270.95h207.872v270.95h-2.15z" horiz-adv-x="1024"/><glyph glyph-name="number2" unicode="" d="M512-128c282.778 0 512 229.222 512 512S794.778 896 512 896 0 666.778 0 384s229.222-512 512-512zm0 51.2a460.8 460.8 0 100 921.6 460.8 460.8 0 000-921.6zM536.166 640c47.31 0 86.016-13.62 116.839-40.858 30.105-27.238 45.875-63.795 45.875-108.236 0-44.442-17.203-84.583-50.176-120.423-17.92-18.637-53.043-46.592-106.086-82.432-65.23-43.725-102.503-83.149-111.821-117.555h268.8V118.17H358.4c0 46.592 16.486 88.883 50.893 126.873 20.07 22.938 56.627 53.76 111.104 91.034 40.14 28.672 66.662 49.459 80.281 63.795 25.805 27.955 39.424 58.778 39.424 91.75 0 31.54-9.318 55.194-27.955 72.397-18.637 17.203-45.158 25.805-78.131 25.805-35.123 0-62.362-11.469-80.998-35.84-20.07-22.938-30.823-57.344-31.54-102.502h-58.777c0 57.344 16.486 103.219 48.025 136.908 31.54 34.407 73.83 51.61 125.44 51.61z" horiz-adv-x="1024"/><glyph glyph-name="number3" unicode="" d="M512-128c282.778 0 512 229.222 512 512S794.778 896 512 896 0 666.778 0 384s229.222-512 512-512zm0 51.2a460.8 460.8 0 100 921.6 460.8 460.8 0 000-921.6zM541.9 640c48.743 0 88.884-12.186 118.99-37.274 29.388-25.088 44.441-58.777 44.441-101.785 0-57.344-27.955-96.051-83.865-114.688 30.105-9.319 53.043-23.655 68.812-43.725 17.204-20.07 25.805-45.158 25.805-75.264 0-46.592-16.486-84.582-48.742-113.971-32.973-30.106-75.981-45.159-129.024-45.159-48.743 0-88.167 12.903-118.989 37.274-36.557 30.106-56.627 73.83-60.928 131.174h59.494c1.434-40.14 15.053-70.963 40.141-91.75 21.504-17.203 48.026-26.522 80.282-26.522 36.557 0 65.945 10.752 88.166 31.54 20.07 20.07 30.823 45.158 30.823 75.264 0 30.822-10.036 54.476-30.106 71.68-20.07 17.203-47.309 25.088-83.149 25.088h-41.574v45.875H541.9c34.406 0 60.211 7.885 78.131 22.937 17.92 15.77 27.238 37.99 27.238 66.663s-9.318 50.893-26.521 66.662c-18.637 17.203-45.159 25.088-78.131 25.088-34.407 0-60.928-8.601-80.282-27.238-20.07-18.637-31.54-45.159-35.123-79.565h-58.061c4.3 49.46 22.938 88.166 54.477 116.122C453.734 626.38 493.159 640 541.9 640z" horiz-adv-x="1024"/><glyph glyph-name="done" unicode="" d="M0 384a512 512 0 111024 0A512 512 0 110 384zm432.333-165.222l346.931 325.836a36.198 36.198 0 0049.562 0 31.949 31.949 0 000-46.592L481.894 172.186a36.198 36.198 0 00-49.561 0 31.949 31.949 0 000 46.592zm50.278 0L259.635 428.186a36.198 36.198 0 01-49.561 0 31.949 31.949 0 010-46.49l222.976-209.51a36.198 36.198 0 0149.561 0 31.949 31.949 0 010 46.592z" horiz-adv-x="1024"/><glyph glyph-name="share-qq" unicode="" d="M872.643 306.708c-12.012 29.338-27.413 55.706-43.715 77.24 13.281 10.22 22.528 31.673 22.528 56.73 0 34.57-17.46 62.567-39.086 63.1 1.884 13.28 2.908 26.828 2.908 40.621 0 160.615-131.154 290.755-292.977 290.755-161.75 0-292.935-130.14-292.935-290.755 0-15.452 1.239-30.597 3.584-45.394-14.367-9.523-24.474-32.04-24.474-58.327 0-15.288 3.564-29.122 9.247-40.058-18.842-20.306-37.233-46.296-52.275-76.268-41.534-82.8-35.328-166.502-9.759-180.132 13.128-6.984 47.35 15.032 80.968 55.767 5.447-47.974 28.14-91.78 62.894-127.007-57.508-16.998-95.693-50.513-90.583-84.592 6.359-43.07 79.175-70.636 162.693-61.645 61.112 6.615 110.827 31.037 130.693 60.518 5.171-.225 10.373-.368 15.616-.368 8.96 0 17.807.379 26.573 1.065 21.207-28.099 68.106-51.436 124.795-58.665 80.978-10.302 151.07 16.148 156.487 59.095 4.322 33.843-32.809 67.789-88.33 85.73 32.645 33.494 54.415 74.598 60.99 119.633 29.86-40.847 60.395-66.97 76.38-63.467 18.841 4.157 32.338 92.16-2.222 176.424z" horiz-adv-x="1024"/><glyph glyph-name="warning" unicode="" d="M827.16-19.54A509.805 509.805 0 00512-128C229.23-128 0 101.23 0 384s229.23 512 512 512 512-229.23 512-512c0-66.803-12.8-130.633-36.084-189.147l-.05.037a30.476 30.476 0 10-55.624 24.953A449.914 449.914 0 01963.047 384c0 249.113-201.935 451.048-451.047 451.048S60.952 633.113 60.952 384 262.887-67.047 512-67.047a449.121 449.121 0 01279.356 96.902l.122-.073a30.476 30.476 0 0035.67-49.323zM518.095 725.332q30.476 0 30.476-30.476V231.62q0-30.476-30.476-30.476t-30.476 30.476v463.238q0 30.476 30.476 30.476zm-42.667-640a42.667 42.667 0 1185.334 0 42.667 42.667 0 11-85.334 0z" horiz-adv-x="1024"/><glyph glyph-name="security" unicode="" d="M856.474 154.675c-13.056-12.441-24.986-14.848-35.687-7.168-9.881 7.015-12.8 16.743-8.755 29.082 46.848 96 75.366 248.473 83.968 456.397L512 844.8 128 632.986c9.062-219.239 40.294-376.832 91.802-471.552C270.49 68.147 367.462-11.725 512-76.8 599.398-37.478 669.389 7.27 722.278 57.14c12.954 11.52 25.293 13.67 36.967 6.45 12.083-7.526 13.926-18.534 5.58-33.126C702.465-30.208 618.24-82.944 512-128 347.648-58.42 235.93 29.9 176.742 137.011 117.606 244.071 84.275 418.304 76.8 659.712L512 896l435.2-236.288c-7.066-228.557-37.325-396.851-90.726-505.037zM512 691.2q25.6 0 25.6-25.6V256q0-25.6-25.6-25.6T486.4 256v409.6q0 25.6 25.6 25.6zm0-512q25.6 0 25.6-25.6v-51.2q0-25.6-25.6-25.6t-25.6 25.6v51.2q0 25.6 25.6 25.6z" horiz-adv-x="1024"/><glyph glyph-name="success" unicode="" d="M827.16 787.54A509.805 509.805 0 01512 896C229.23 896 0 666.77 0 384s229.23-512 512-512 512 229.23 512 512c0 66.803-12.8 130.633-36.084 189.147l-.05-.037a30.476 30.476 0 11-55.624-24.953A449.914 449.914 0 00963.047 384c0-249.113-201.935-451.048-451.047-451.048S60.952 134.887 60.952 384 262.887 835.047 512 835.047a449.121 449.121 0 00279.356-96.902l.122.073a30.476 30.476 0 0135.67 49.323zM446.842 240.86l474.002 478.402a36.084 36.084 0 0048.762 0 30.318 30.318 0 000-44.702L477.208 179.297a28.891 28.891 0 00-4.254-4.669 36.803 36.803 0 00-48.762 0l-219.429 194.11a28.794 28.794 0 000 43.13 36.803 36.803 0 0048.762 0l193.317-171.009z" horiz-adv-x="1024"/><glyph glyph-name="dynamic" unicode="" d="M0 384a512 512 0 111024 0A512 512 0 110 384zm447.147 110.165L628.053 313.43l241.152 241.238 60.331-60.331L688.299 253.1l.17-.171-60.33-60.33-.171.17-.17-.17-60.331 60.33.17.17-180.736 180.737-241.237-241.238-60.33 60.331L326.57 494.165l-.171.171 60.33 60.33.171-.17.171.17 60.33-60.33-.17-.17z" horiz-adv-x="1024"/><glyph glyph-name="move" unicode="" d="M464 752H160c-8.8 0-16-7.2-16-16V432c0-8.8 7.2-16 16-16h304c8.8 0 16 7.2 16 16v304c0 8.8-7.2 16-16 16zm-52-268H212v200h200V484zm452 268H560c-8.8 0-16-7.2-16-16V432c0-8.8 7.2-16 16-16h304c8.8 0 16 7.2 16 16v304c0 8.8-7.2 16-16 16zm-52-268H612v200h200V484zM464 352H160c-8.8 0-16-7.2-16-16V32c0-8.8 7.2-16 16-16h304c8.8 0 16 7.2 16 16v304c0 8.8-7.2 16-16 16zM412 84H212v200h200V84zm452 268H560c-8.8 0-16-7.2-16-16V32c0-8.8 7.2-16 16-16h304c8.8 0 16 7.2 16 16v304c0 8.8-7.2 16-16 16zM812 84H612v200h200V84z" horiz-adv-x="1024"/><glyph glyph-name="share-wechat" unicode="" d="M405.333 725.333c-176.64 0-320-114.773-320-256 0-80.64 46.08-151.893 118.614-198.826l-33.28-99.84 106.666 64c37.974-13.227 79.787-21.334 124.16-21.334C390.4 240.213 384 268.8 384 298.667c0 141.226 133.547 256 298.667 256 8.106 0 16.213 0 23.893-1.28-43.52 99.84-161.28 171.946-301.227 171.946m-128-106.666C300.8 618.667 320 599.467 320 576c0-23.467-19.2-42.667-42.667-42.667-23.466 0-42.666 19.2-42.666 42.667 0 23.467 19.2 42.667 42.666 42.667m213.334 0c23.466 0 42.666-19.2 42.666-42.667 0-23.467-19.2-42.667-42.666-42.667C467.2 533.333 448 552.533 448 576c0 23.467 19.2 42.667 42.667 42.667m192-106.667c-141.227 0-256-95.573-256-213.333s114.773-213.334 256-213.334c28.586 0 55.893 3.414 81.493 10.667l89.173-53.333-26.453 79.786c66.987 38.827 111.787 103.254 111.787 176.214 0 117.76-114.774 213.333-256 213.333m-85.334-106.667c23.467 0 42.667-19.2 42.667-42.666C640 339.2 620.8 320 597.333 320c-23.466 0-42.666 19.2-42.666 42.667 0 23.466 19.2 42.666 42.666 42.666m170.667 0c23.467 0 42.667-19.2 42.667-42.666C810.667 339.2 791.467 320 768 320c-23.467 0-42.667 19.2-42.667 42.667 0 23.466 19.2 42.666 42.667 42.666z" horiz-adv-x="1024"/><glyph glyph-name="share-telegram" unicode="" d="M899.5 794.7L105.8 455.8c-54.2-24.1-53.6-57.9-9.8-71.5l203.6-71.5 471.1 329.6c22.4 14.8 42.8 6.6 25.8-10.4L414.9 251 401 18.3c20.4 0 29.9 10.4 41.3 23.1l98.9 106.1L747-20.9c37.8-23.1 65.2-11 74.6 39l135.2 704.7c13.9 61.9-20.8 90-57.3 71.9z" horiz-adv-x="1024"/><glyph glyph-name="share-facebook" unicode="" d="M512 896C230.4 896 0 665.6 0 384s230.4-512 512-512v384H384v128h128v96c0 89.6 70.4 160 160 160h160V512H672c-19.2 0-32-12.8-32-32v-96h176l-32-128H640v-368c220.8 57.6 384 256 384 496 0 281.6-230.4 512-512 512z" horiz-adv-x="1024"/><glyph glyph-name="share-twitter" unicode="" d="M923.2 606.4C923.2 252 690.4-3.2 348-14.4 203.2-25.6 104 18.4 15.2 84.8c99.2-11.2 232.8 21.6 298.4 88.8-99.2 0-155.2 56-188 132h88.8c-88.8 33.6-156 100-156 210.4 21.6-11.2 44-21.6 88.8-21.6-77.6 44-121.6 188-66.4 276.8C180 660.8 301.6 560.8 502.4 550.4c-56 220.8 232.8 332.8 354.4 188 56 11.2 88.8 32.8 132 56-11.2-56-44-88.8-88.8-110.4 44 0 77.6 11.2 110.4 32.8-10.4-44-54.4-88.8-87.2-110.4z" horiz-adv-x="1024"/><glyph glyph-name="share-weibo" unicode="" d="M536.63 278.06c-18.07 34.54-47.92 57.07-90.35 68.39-40 10.75-80.18 6.75-120.21-10.75q-59.36-26.24-86.35-79.7c-18.07-36.26-19.22-71.83-4-107.4 15.21-35.11 43.46-59.36 84.06-72.4C362.1 62 405 64.3 447.88 82.94c42.89 18.07 73.43 46.89 90.35 86 17.61 38.43 17 74.57-1.6 109.11zM385.32 160.95c-8.46-13-20.36-22.08-36.14-27.68-15.21-5-29.39-4.46-42.31 1.71s-21.4 15.79-24.87 28.83c-3.43 13.61-1.15 26.53 7.32 39.57 7.9 13 19.79 21.5 34.43 26.53a59 59 0 0041.75-.57c13.5-5.61 22.08-15.33 26-28.82s1.71-26.54-6.18-39.57zM439 230.49a21.69 21.69 0 00-13-11.33 26.66 26.66 0 00-16.36 0c-11.21 5.61-13.5 14.18-7.32 26a24.74 24.74 0 0028.82 11.33 17.56 17.56 0 0010.18-10.76c1.71-4.91.57-10.06-2.29-15.21zm434.11 95.61c-12.92 20.36-28.25 35.68-45.75 46.89a241.53 241.53 0 01-58.67 27.1c-4.46 1.72-7.89 2.86-9.61 3.44a64.45 64.45 0 00-6.75 4.57c-2.86 2.29-4 4.57-2.86 7.32a35 35 0 012.86 11.32c16.93 44.15 16.93 78 0 102.37-17.5 23.21-46.89 35.11-87.38 35.11s-87.49-11.32-140.56-34l-3.39-1.11a31.12 31.12 0 00-7.89-2.29 14.26 14.26 0 00-8.46-.57 6.86 6.86 0 00-5.61 4c-1.15 2.28-1.15 6.29.57 11.32 17.5 55.47 13.49 95.61-11.21 119.86-27.68 28.25-75 29.4-140.56 4-66.22-26.07-131.07-71.25-195.46-135.76C103.85 480.5 66 431.32 39.46 381.45S0 284.7 0 240.66c0-41.29 12.47-79.14 37.28-114.83q37.23-52.67 98.25-86.58c40-22.65 86.35-40.14 137.13-53.18a632.23 632.23 0 01157-19.22c53.64.58 105.56 6.29 154.63 18.07 49.64 11.89 92.53 27.68 129.24 47.46a482 482 0 0196.53 67.25c27.11 24.94 48 51.47 62.1 78.69 14.07 27.68 20.93 54.33 20.93 80.29a126.24 126.24 0 01-20 67.48zM641 108.34c-55.92-45.87-126.49-72.4-211-81.43-55.93-5.6-107.85-1.71-156.92 11.9s-88.64 34.54-119.06 62.79-47.47 61.07-50.79 97.9c-5.6 56 19.79 106.93 75.6 152.11 55.92 45.86 126.5 72.4 211 81.43 55.93 5.6 107.85 1.72 156.92-11.33 49.07-13.61 88.64-34.54 119.06-62.79s47.46-61.08 50.78-97.9C722.37 205.09 697 154.2 641 108.34zm209.46 508.49c15.79-18.07 26.54-39 31-62.22s3.43-45.87-4-67.25c-2.86-9-8.47-15.33-16.93-19.79-8.47-4-16.93-5.15-25.39-2.29a30.14 30.14 0 00-19.22 16.93c-4 8.47-5 16.93-2.28 25.5 7.32 24.36 2.86 45.29-13.5 63.93-16.93 18.07-37.28 24.94-61 20.36a35.06 35.06 0 00-26 4.46c-7.89 5.14-13 11.89-14.07 21.5-1.71 9-.57 17.5 4.57 25.5s11.9 13 20.93 14.75a132.12 132.12 0 00125.81-41.4zm0 0l103.39 93.9a262.29 262.29 0 0064.39-127.87c9.61-48.61 7.32-94.47-7.89-138.61A41 41 0 00991.14 421c-9.61-5-19.22-5.6-30-2.28a37.16 37.16 0 00-22.53 19.79c-5 9.61-5.6 19.21-2.86 30 10.75 31.11 12.47 64.51 5.61 98.94a184.07 184.07 0 01-45.75 90.46c-23.61 26.52-51.89 44.7-84.61 54.88a195.73 195.73 0 01-98.82 5.14 38.12 38.12 0 00-30 5.61c-9 5.6-14.64 14.18-16.93 24.93s-.57 20.36 5.61 29.39a37.23 37.23 0 0024.93 17c46.89 10.18 93.1 7.9 139.42-6.75C881 773.52 920.46 748 953.85 710.73z" horiz-adv-x="1024"/><glyph glyph-name="share" unicode="" d="M821.146 619.162c-235.93-25.14-449.178-226.714-490.548-452.352a38.4 38.4 0 10-75.57 13.824c45.567 248.576 269.311 468.48 526.694 510.668L663.91 760.474a38.4 38.4 0 0038.912 66.252l223.335-131.174a38.4 38.4 0 0010.137-57.6L765.542 431.309a38.4 38.4 0 10-59.187 48.947l114.79 138.906zM832 275.917a38.4 38.4 0 0076.8 0V117.709c0-85.965-61.594-157.85-140.8-157.85H204.8C125.594-40.14 64 31.744 64 117.76v477.85c0 86.016 61.594 157.85 140.8 157.85h220.211a38.4 38.4 0 100-76.8H204.8c-33.894 0-64-35.073-64-81.05V117.76c0-45.978 30.106-81.1 64-81.1H768c33.894 0 64 35.122 64 81.1v158.157z" horiz-adv-x="1024"/><glyph glyph-name="sound" unicode="" d="M625.9 781c-5.9 0-11.9-1.6-17.4-5.3L254 544H90c-8.8 0-16-7.2-16-16V240c0-8.8 7.2-16 16-16h164L608.5-7.7c5.5-3.6 11.6-5.3 17.4-5.3C642.6-13 658 .3 658 19.1v729.8c0 18.8-15.4 32.1-32.1 32.1zM586 93L293.4 284.3l-18 11.7H146v176h129.4l17.9 11.7L586 675V93zm348 327H806c-8.8 0-16-7.2-16-16v-40c0-8.8 7.2-16 16-16h128c8.8 0 16 7.2 16 16v40c0 8.8-7.2 16-16 16zm-41.9-261.8l-110.3 63.7c-2.5 1.4-5.2 2.1-7.9 2.1-5.5 0-10.9-2.9-13.8-8l-19.9-34.5c-4.4-7.6-1.8-17.4 5.8-21.8L856.3 96c2.5-1.4 5.2-2.1 7.9-2.1 5.5 0 10.9 2.9 13.8 8l19.9 34.5c4.4 7.6 1.7 17.4-5.8 21.8zM760 552c2.9-5.1 8.3-8 13.8-8 2.7 0 5.4.7 7.9 2.1L892 609.8c7.6 4.4 10.2 14.2 5.8 21.8L878 666c-2.9 5.1-8.3 8-13.8 8-2.7 0-5.4-.7-7.9-2.1L746 608.2c-7.6-4.4-10.2-14.2-5.8-21.8L760 552z" horiz-adv-x="1024"/><glyph glyph-name="angle-right" unicode="" d="M765.7 409.2L314.9 761.3c-5.3 4.1-12.9.4-12.9-6.3v-77.3c0-4.9 2.3-9.6 6.1-12.6l360-281.1-360-281.1c-3.9-3-6.1-7.7-6.1-12.6V13c0-6.7 7.7-10.4 12.9-6.3l450.8 352.1c16.4 12.8 16.4 37.6 0 50.4z" horiz-adv-x="1024"/><glyph glyph-name="angle-left" unicode="" d="M724 677.7V755c0 6.7-7.7 10.4-12.9 6.3L260.3 409.2c-16.4-12.8-16.4-37.5 0-50.3L711.1 6.8c5.3-4.1 12.9-.4 12.9 6.3v77.3c0 4.9-2.3 9.6-6.1 12.6l-360 281 360 281.1c3.8 3 6.1 7.7 6.1 12.6z" horiz-adv-x="1024"/><glyph glyph-name="angle-up" unicode="" d="M890.5 140.7L537.9 626.8c-12.8 17.6-39 17.6-51.7 0L133.5 140.7c-3.8-5.3-.1-12.7 6.5-12.7h75c5.1 0 9.9 2.5 12.9 6.6L512 526.2l284.1-391.6c3-4.1 7.8-6.6 12.9-6.6h75c6.5 0 10.3 7.4 6.5 12.7z" horiz-adv-x="1024"/><glyph glyph-name="angle-down" unicode="" d="M884 640h-75c-5.1 0-9.9-2.5-12.9-6.6L512 241.8 227.9 633.4c-3 4.1-7.8 6.6-12.9 6.6h-75c-6.5 0-10.3-7.4-6.5-12.7l352.6-486.1c12.8-17.6 39-17.6 51.7 0l352.6 486.1c3.9 5.3.1 12.7-6.4 12.7z" horiz-adv-x="1024"/><glyph glyph-name="down" unicode="" d="M738.135 306.551l-200.687-200.69v672.178h-50.896V105.862l-200.687 200.69-45.227-45.229L512.001-10.038l271.36 271.361z" horiz-adv-x="1024"/><glyph glyph-name="up" unicode="" d="M738.135 461.45L537.448 662.14V-10.038h-50.896v672.176L285.865 461.45l-45.227 45.227 271.363 271.362 271.36-271.362z" horiz-adv-x="1024"/><glyph glyph-name="areachart" unicode="" d="M888 104H200v624c0 4.4-3.6 8-8 8h-56c-4.4 0-8-3.6-8-8V40c0-4.4 3.6-8 8-8h752c4.4 0 8 3.6 8 8v56c0 4.4-3.6 8-8 8zm-616 64h536c4.4 0 8 3.6 8 8v436c0 7.2-8.7 10.7-13.7 5.7L592 407.4l-125.4 124c-3.1 3.1-8.2 3.1-11.3 0l-189-189.6c-1.5-1.5-2.3-3.5-2.3-5.6V176c0-4.4 3.6-8 8-8z" horiz-adv-x="1024"/><glyph glyph-name="delete" unicode="" d="M656 608h144a16 16 0 0016-16v-16a16 16 0 00-16-16h-48V64a16 16 0 00-16-16H288a16 16 0 00-16 16v496h-48a16 16 0 00-16 16v16a16 16 0 0016 16h144v80a16 16 0 0016 16h256a16 16 0 0016-16v-80zm-48 0v48H416v-48h192zm32-48H320V96h384v464h-64zM432 448h16a16 16 0 0016-16V240a16 16 0 00-16-16h-16a16 16 0 00-16 16v192a16 16 0 0016 16zm144 0h16a16 16 0 0016-16V240a16 16 0 00-16-16h-16a16 16 0 00-16 16v192a16 16 0 0016 16z" horiz-adv-x="1024"/><glyph glyph-name="check" unicode="" d="M912 706h-69.9c-9.8 0-19.1-4.5-25.1-12.2L404.7 171.5 207 422c-6.1 7.7-15.3 12.2-25.1 12.2H112c-6.7 0-10.4-7.7-6.3-12.9l273.9-347c12.8-16.2 37.4-16.2 50.3 0l488.4 618.9c4.1 5.1.4 12.8-6.3 12.8z" horiz-adv-x="1024"/><glyph glyph-name="close" unicode="" d="M563.8 384l262.5 312.9c4.4 5.2.7 13.1-6.1 13.1h-79.8c-4.7 0-9.2-2.1-12.3-5.7L511.6 446.2 295.1 704.3c-3 3.6-7.5 5.7-12.3 5.7H203c-6.8 0-10.5-7.9-6.1-13.1L459.4 384 196.9 71.1c-4.4-5.2-.7-13.1 6.1-13.1h79.8c4.7 0 9.2 2.1 12.3 5.7l216.5 258.1L728.1 63.7c3-3.6 7.5-5.7 12.3-5.7h79.8c6.8 0 10.5 7.9 6.1 13.1L563.8 384z" horiz-adv-x="1024"/><glyph glyph-name="question1" unicode="" d="M764 615.1c-14 30.6-33.9 58.1-59.3 81.6C653.1 744.6 584.6 771 512 771s-141.1-26.4-192.7-74.2c-25.4-23.6-45.3-51-59.3-81.7-14.6-32-22-65.9-22-100.9v-27c0-6.2 5-11.2 11.2-11.2h54c6.2 0 11.2 5 11.2 11.2v27c0 99.5 88.6 180.4 197.6 180.4s197.6-80.9 197.6-180.4c0-40.8-14.5-79.2-42-111.2-27.2-31.7-65.6-54.4-108.1-64-24.3-5.5-46.2-19.2-61.7-38.8-15.4-19.4-23.9-43.8-23.9-68.6v-31.4c0-6.2 5-11.2 11.2-11.2h54c6.2 0 11.2 5 11.2 11.2v31.4c0 15.7 10.9 29.5 26 32.9 58.4 13.2 111.4 44.7 149.3 88.7 19.1 22.3 34 47.1 44.3 74 10.7 27.9 16.1 57.2 16.1 87 0 35-7.4 69-22 100.9zM512 109c-30.9 0-56-25.1-56-56s25.1-56 56-56 56 25.1 56 56-25.1 56-56 56z" horiz-adv-x="1024"/><glyph glyph-name="gift1" unicode="" d="M880 586H732.4c13.6 21.4 21.6 46.8 21.6 74 0 76.1-61.9 138-138 138-41.4 0-78.7-18.4-104-47.4-25.3 29-62.6 47.4-104 47.4-76.1 0-138-61.9-138-138 0-27.2 7.9-52.6 21.6-74H144c-17.7 0-32-14.3-32-32V354c0-4.4 3.6-8 8-8h40V2c0-17.7 14.3-32 32-32h640c17.7 0 32 14.3 32 32v344h40c4.4 0 8 3.6 8 8v200c0 17.7-14.3 32-32 32zm-334 74c0 38.6 31.4 70 70 70s70-31.4 70-70-31.4-70-70-70h-70v70zm-138 70c38.6 0 70-31.4 70-70v-70h-70c-38.6 0-70 31.4-70 70s31.4 70 70 70zM180 414v104h298V414H180zm48-68h250V38H228v308zM796 38H546v308h250V38zm48 376H546v104h298V414z" horiz-adv-x="1024"/><glyph glyph-name="stop" unicode="" d="M512 832C264.6 832 64 631.4 64 384S264.6-64 512-64s448 200.6 448 448-200.6 448-448 448zm0-820c-205.4 0-372 166.6-372 372 0 89 31.3 170.8 83.5 234.8L746.8 95.5C682.8 43.3 601 12 512 12zm288.5 137.2L277.2 672.5C341.2 724.7 423 756 512 756c205.4 0 372-166.6 372-372 0-89-31.3-170.8-83.5-234.8z" horiz-adv-x="1024"/><glyph glyph-name="fire" unicode="" d="M834.1 426.8c-19.5 43.8-47.4 82.6-82.9 115.2l-29.1 26.7c-4.3 3.8-11.1 2.1-13-3.3l-13-37.3c-8.1-23.4-23-47.3-44.1-70.8-1.4-1.5-3-1.9-4.1-2-1.1-.1-2.8.1-4.3 1.5-1.4 1.2-2.1 3-2 4.8 3.7 60.2-14.3 128.1-53.7 202C555.3 725 510 772.9 453.4 806.3l-41.3 24.3c-5.4 3.2-12.3-1-12-7.3l2.2-48c1.5-32.8-2.3-61.8-11.3-85.9-11-29.5-26.8-56.9-47-81.5-14.2-17.2-30.1-32.7-47.5-46.1-42.1-32.3-76.8-74.4-100.3-121.5C172.5 392.7 160 339.4 160 286c0-47.2 9.3-92.9 27.7-136 17.8-41.5 43.2-78.9 75.5-110.9 32.4-32 70-57.2 111.9-74.7C418.5-53.8 464.5-63 512-63s93.5 9.2 136.9 27.3C690.8-18.2 728.5 6.9 760.8 39c32.4 32 57.8 69.4 75.5 110.9 18.4 43.1 27.7 88.8 27.7 136 0 48.8-10 96.2-29.9 140.9zM713 87.5C659.3 34.3 588 5.1 512 5.1S364.7 34.3 311 87.5c-53.5 53.1-83 123.5-83 198.4 0 43.5 9.8 85.2 29.1 124 18.8 37.9 46.8 71.8 80.8 97.9 21.5 16.4 41.2 35.5 58.6 56.8 25 30.5 44.6 64.5 58.2 101 5.4 14.5 9.5 30 12.1 46.5 24.1-22.2 44.3-49 61.2-80.4 33.4-62.6 48.8-118.3 45.8-165.7-1.4-22.8 7.5-44.5 24.4-59.8 14.7-13.2 33.7-19.9 53.4-18.8 19.7 1 37.8 9.7 51 24.4 13.3 14.9 24.8 30.1 34.4 45.6 14-17.9 25.7-37.4 35-58.4 15.9-35.8 24-73.9 24-113.1 0-74.9-29.5-145.4-83-198.4z" horiz-adv-x="1024"/><glyph glyph-name="search" unicode="" d="M909.6 41.5L649.9 301.2C690.2 353.3 712 417 712 484c0 80.2-31.3 155.4-87.9 212.1-56.6 56.7-132 87.9-212.1 87.9s-155.5-31.3-212.1-87.9C143.2 639.5 112 564.2 112 484c0-80.1 31.3-155.5 87.9-212.1C256.5 215.2 331.8 184 412 184c67 0 130.6 21.8 182.7 62L854.4-13.6c3.2-3.2 8.4-3.2 11.6 0l43.6 43.5c3.2 3.2 3.2 8.4 0 11.6zM570.4 325.6C528 283.3 471.8 260 412 260s-116 23.3-158.4 65.6C211.3 368 188 424.2 188 484s23.3 116.1 65.6 158.4C296 684.7 352.2 708 412 708s116.1-23.2 158.4-65.6S636 543.8 636 484s-23.3-116.1-65.6-158.4z" horiz-adv-x="1024"/><glyph glyph-name="plus" unicode="" d="M482 744h60q8 0 8-8V32q0-8-8-8h-60q-8 0-8 8v704q0 8 8 8zM176 422h672q8 0 8-8v-60q0-8-8-8H176q-8 0-8 8v60q0 8 8 8z" horiz-adv-x="1024"/><glyph glyph-name="weixian" unicode="" d="M944.256-30.4H78.464c-44.288 0-65.856 52.16-46.4 91.968 26.624 54.336 409.152 698.368 433.024 744.256 21.376 41.216 72.384 41.92 93.76 0 32.576-63.808 413.248-704.96 432-742.272 23.616-46.656-6.272-93.952-46.592-93.952zm-477.76 593.664l30.464-319.616h45.632l30.528 319.616H466.496zM573.12 197.888H466.496v-91.264H573.12v91.264z" horiz-adv-x="1024"/><glyph glyph-name="question" unicode="" d="M511.937-65.707c-248.403 0-449.77 201.368-449.77 449.77s201.368 449.77 449.77 449.77 449.77-201.368 449.77-449.77-201.368-449.77-449.77-449.77zm-56.929 192.062c0-12.717 10.312-23.028 23.028-23.028h67.325c12.723 0 23.028 10.312 23.028 23.028v67.33c0 12.723-10.305 23.028-23.028 23.028h-67.325c-12.717 0-23.028-10.312-23.028-23.028v-67.33zm201.581 510.254c-37.668 27.166-84.906 42.492-141.818 42.492-43.313 0-79.823-11.328-109.502-30.411-43.644-27.712-68.332-74.381-74.139-137.552-.461-5.009 3.07-15.41 19.116-15.41h75.353c10.811 0 14.056 10.659 14.893 15.719 2.344 14.291 8.011 30.95 17.007 45.242 12.184 19.341 32.844 23.742 62.001 23.742 29.612 0 50.042-2.587 61.203-18.266 11.194-15.743 16.77-33.143 16.77-52.223 0-16.602-8.32-31.793-18.351-45.624-5.521-8.057-12.818-15.449-21.825-22.247 0 0-59.19-37.966-85.204-68.466-12.852-15.073-15.742-55.367-17.131-86.901-.208-4.813 2.035-14.651 14.595-14.651h77.259c9.597 0 13.702 9.367 14.117 13.959.826 9.119 2.052 29.864 3.694 35.009 4.785 15.079 17.721 28.257 32.31 39.575l30.039 20.729c27.11 21.133 48.761 38.467 58.301 52.067 16.305 22.381 27.768 49.913 27.762 82.561.002 53.315-18.855 93.518-56.451 120.656z" horiz-adv-x="1024"/><glyph glyph-name="guding" unicode="" d="M381.298 477.172H223.595L186.02 438.9l155.61-158.377L63.418-64.605l356.04 265.838 154.71-157.41 38.813 39.51 2.407 157.972 238.838 313.29 71.685-73.013 34.695 35.28-310.185 315.743-34.672-35.257 77.287-79.402-311.737-240.773z" horiz-adv-x="1024"/><glyph glyph-name="ios" unicode="" d="M781.152 378.453c1.35-140.502 129.231-187.259 130.72-187.907-1.162-3.216-20.492-66.642-67.481-132.167C803.787 1.753 761.732-54.554 695.368-55.714c-65.292-1.165-86.199 36.882-160.801 36.882-74.562 0-97.891-35.723-159.597-38.048-63.984-2.329-112.789 61.102-153.729 117.497C137.509 176.016 73.614 386.654 159.49 528.83c42.612 70.649 118.847 115.307 201.509 116.514 62.918 1.073 122.337-40.467 160.71-40.467 38.513 0 110.649 49.921 186.511 42.612 31.716-1.26 120.898-12.201 178.13-92.025-4.563-2.839-106.41-59.285-105.201-177.01zM514.026 658.058c-7.358 53.414 20.211 108.929 51.695 143.808 35.161 39.259 94.487 68.457 143.481 70.32 6.287-54.393-16.716-109.02-50.667-148.37-34.043-39.216-89.836-69.81-144.507-65.758zm0 0z" horiz-adv-x="1024"/><glyph glyph-name="android" unicode="" d="M840.408 551.375c-30.1 0-54.508-24.785-54.508-55.358V279.685c0-30.575 24.407-55.359 54.508-55.359 30.103 0 54.506 24.785 54.506 55.36v216.331c.002 30.573-24.4 55.358-54.506 55.358zm-657.456 0c-30.103 0-54.508-24.785-54.508-55.358V279.685c0-30.575 24.405-55.359 54.508-55.359s54.506 24.785 54.506 55.36v216.331c0 30.573-24.404 55.358-54.506 55.358zm87.307-1.676v-395.24c0-23.476 19.03-42.506 42.507-42.506h48.562V-8.409c0-30.576 24.405-55.36 54.508-55.36s54.508 24.785 54.508 55.36v120.363h84.835V-8.408c0-30.576 24.407-55.36 54.508-55.36 30.103 0 54.511 24.785 54.511 55.36v120.362h48.557c23.48 0 42.51 19.028 42.51 42.506V549.7H270.26zm356.384 204.806l44.803 65.036c2.658 3.863 1.998 8.937-1.48 11.333-3.476 2.393-8.45 1.204-11.11-2.66l-46.538-67.558c-30.668 12.083-64.744 18.816-100.638 18.816-35.896 0-69.97-6.733-100.638-18.816l-46.537 67.557c-2.66 3.865-7.636 5.053-11.113 2.66-3.478-2.396-4.137-7.47-1.477-11.332l44.803-65.037c-71.228-33.135-121.183-96.096-127.54-169.583h485.005c-6.359 73.488-56.313 136.449-127.54 169.584zM409.372 652.01c-14.82 0-26.836 12.012-26.836 26.834 0 14.82 12.015 26.834 26.836 26.834s26.834-12.013 26.834-26.834-12.013-26.834-26.834-26.834zm207.971 0c-14.82 0-26.832 12.012-26.832 26.834 0 14.82 12.01 26.834 26.832 26.834 14.825 0 26.836-12.013 26.836-26.834s-12.01-26.834-26.836-26.834z" horiz-adv-x="1024"/><glyph glyph-name="weixin" unicode="" d="M863.206 341.508c0 86.172-89.499 156.025-200.098 156.025-110.497 0-200.099-69.853-200.099-156.025 0-85.652 88.563-155.089 198.228-155.92 47.712-80.248 91.473-64.863 91.473-64.863s-34.094 22.66-37.629 70.164c85.342 17.878 148.125 78.48 148.125 150.62zm-266.624 24.323c-12.89 0-23.387 10.5-23.387 23.388 0 12.89 10.499 23.388 23.387 23.388 12.89 0 23.388-10.499 23.388-23.388 0-12.889-10.498-23.388-23.388-23.388zm128.166 0c-12.992 0-23.387 10.5-23.387 23.388 0 12.89 10.395 23.388 23.387 23.388 12.89 0 23.285-10.499 23.285-23.388 0-12.889-10.394-23.388-23.285-23.388zm-85.962 158.936c-33.576 73.699-124.53 126.608-231.595 126.608-135.652 0-245.627-84.926-245.627-189.6 0-89.706 80.767-164.86 189.183-184.506-2.079-62.056-46.567-91.68-46.567-91.68s56.131-19.855 116.317 86.587c0 0-.312.104-.83.208 11.328.52 22.556 1.56 33.47 3.118-14.553 23.076-22.765 48.959-22.765 76.402-.002 92.096 92.096 167.354 208.414 172.863zm-304.878-31.289c-17.152 0-30.977 13.825-30.977 30.872 0 17.151 13.825 30.976 30.977 30.976 17.047 0 30.871-13.825 30.871-30.976.001-17.046-13.823-30.872-30.871-30.872zm124.945 30.873c0 17.151 13.824 30.976 30.976 30.976 17.047 0 30.871-13.825 30.871-30.976 0-17.048-13.824-30.872-30.871-30.872-17.152 0-30.976 13.825-30.976 30.872zM512 831.949c60.496 0 119.154-11.836 174.346-35.181 53.336-22.559 101.246-54.865 142.401-96.02s73.461-89.066 96.02-142.401c23.345-55.192 35.181-113.851 35.181-174.346 0-60.495-11.836-119.154-35.181-174.346-22.559-53.334-54.865-101.246-96.02-142.401s-89.066-73.461-142.401-96.02C631.154-52.11 572.495-63.947 512-63.947S392.846-52.111 337.654-28.766C284.318-6.207 236.408 26.1 195.253 67.254s-73.461 89.067-96.02 142.401c-23.345 55.192-35.181 113.851-35.181 174.346 0 60.496 11.836 119.154 35.181 174.346 22.559 53.336 54.865 101.246 96.02 142.401s89.066 73.461 142.401 96.02c55.192 23.345 113.85 35.181 174.346 35.181m0 51.166C236.347 883.115 12.885 659.653 12.885 384S236.347-115.115 512-115.115 1011.115 108.347 1011.115 384 787.653 883.115 512 883.115z" horiz-adv-x="1024"/><glyph glyph-name="twitter" unicode="" d="M733.867 548.267C716.8 537.6 697.6 531.2 678.4 526.933c-14.933 17.067-38.4 27.734-64 27.734-49.067 0-87.467-38.4-87.467-85.334 0-6.4 0-12.8 2.134-19.2-72.534 4.267-136.534 38.4-181.334 89.6-8.533-12.8-12.8-27.733-12.8-42.666 0-29.867 14.934-55.467 38.4-72.534-14.933 0-27.733 4.267-40.533 10.667v-2.133c0-42.667 29.867-76.8 70.4-85.334-6.4-2.133-14.933-2.133-23.467-2.133-6.4 0-10.666 0-17.066 2.133C373.333 313.6 405.333 288 443.733 288c-29.866-23.467-68.266-36.267-108.8-36.267-6.4 0-14.933 0-21.333 2.134 38.4-23.467 85.333-38.4 134.4-38.4 166.4-2.134 256 130.133 256 243.2v10.666c17.067 12.8 32 27.734 42.667 44.8-14.934-6.4-32-10.666-51.2-12.8 19.2 10.667 32 27.734 38.4 46.934zM512 853.333C251.733 853.333 42.667 644.267 42.667 384S251.733-85.333 512-85.333 981.333 123.733 981.333 384 772.267 853.333 512 853.333zm0-896c-234.667 0-426.667 192-426.667 426.667 0 234.667 192 426.667 426.667 426.667s426.667-192 426.667-426.667c0-234.667-192-426.667-426.667-426.667z" horiz-adv-x="1024"/><glyph glyph-name="facebook" unicode="" d="M512 853.333C251.733 853.333 42.667 644.267 42.667 384S251.733-85.333 512-85.333 981.333 123.733 981.333 384 772.267 853.333 512 853.333zm0-896c-234.667 0-426.667 192-426.667 426.667 0 234.667 192 426.667 426.667 426.667s426.667-192 426.667-426.667c0-234.667-192-426.667-426.667-426.667zm42.667 526.934c0 17.066 2.133 25.6 27.733 25.6h36.267v64h-57.6c-68.267 0-91.734-32-91.734-85.334v-42.666h-42.666v-64h42.666v-192h85.334v192h57.6l8.533 64h-64l-2.133 38.4z" horiz-adv-x="1024"/><glyph glyph-name="weibo" unicode="" d="M512 831.949c60.496 0 119.154-11.837 174.346-35.181 53.336-22.559 101.246-54.865 142.401-96.02s73.461-89.067 96.02-142.401c23.345-55.192 35.181-113.851 35.181-174.346 0-60.495-11.837-119.154-35.181-174.346-22.559-53.335-54.865-101.246-96.02-142.401S739.68-6.207 686.346-28.766C631.154-52.111 572.495-63.947 512-63.947S392.846-52.11 337.654-28.766c-53.336 22.559-101.246 54.865-142.401 96.02s-73.461 89.067-96.02 142.401c-23.345 55.192-35.181 113.851-35.181 174.346 0 60.496 11.837 119.154 35.181 174.346 22.559 53.336 54.865 101.246 96.02 142.401s89.067 73.461 142.401 96.02c55.192 23.345 113.85 35.181 174.346 35.181m0 51.166C236.347 883.115 12.885 659.654 12.885 384S236.346-115.115 512-115.115 1011.115 108.346 1011.115 384 787.654 883.115 512 883.115zm-59.183-687.724c-89.671-4.199-162.156 40.773-162.156 100.603 0 59.897 72.484 107.944 162.156 112.085 89.719 4.131 162.357-32.841 162.357-92.628 0-59.836-72.636-115.996-162.357-120.06m190.932 194.397c-21.31 4.131-10.949 15.599-10.949 15.599s20.835 34.351-4.131 59.317c-30.941 30.93-106.112-3.94-106.112-3.94-28.713-8.906-21.114 4.075-17.053 26.151 0 26.012-8.906 70.062-85.405 44.045-76.4-26.146-142.008-117.786-142.008-117.786-45.632-60.871-39.58-107.924-39.58-107.924 11.381-103.894 121.763-132.406 207.615-139.157 90.333-7.083 212.228 31.136 249.203 109.646 36.961 78.662-30.215 109.782-51.578 114.048m-178.4-94.446c-5.715-4.265-12.744-3.68-15.739 1.445-3.152 4.976-1.972 12.97 3.795 17.169 6.679 4.979 13.638 3.545 16.646-1.445 3.009-5.105.853-12.772-4.702-17.169m-53.176-45.282c-16.843-1.981-30.413 7.725-30.413 21.823 0 14.016 12.068 28.709 28.915 30.465 19.332 1.843 31.918-9.31 31.918-23.392.001-14.02-13.65-26.996-30.42-28.896m22.749 118.554c-90.176-10.551-79.759-95.027-79.759-95.027s-.925-26.755 24.18-40.374c52.768-28.588 107.09-11.285 134.561 24.175 27.456 35.454 11.337 121.72-78.982 111.226m252.73 57.744c7.27 0 13.441 5.383 14.491 12.384.116.461.183.99.183 1.535v.046c11.016 99.026-81.136 81.982-81.136 81.982-8.191 0-14.741-6.618-14.741-14.875 0-8.129 6.55-14.75 14.741-14.75 66.198 14.615 51.578-51.574 51.578-51.574-.001-8.19 6.679-14.749 14.884-14.749m-10.739 172.861c-31.866 7.462-64.629 1.022-73.827-.734-.701-.073-1.373-.735-2.016-.873-.322-.057-.519-.385-.519-.385-9.059-2.557-15.667-10.945-15.667-20.845 0-11.794 9.563-21.497 21.491-21.497 0 0 11.607 1.555 19.462 4.636 7.798 3.133 73.799 2.336 106.572-52.715 17.893-40.172 7.869-67.067 6.626-71.39 0 0-4.26-10.433-4.26-20.716 0-11.866 9.563-19.322 21.424-19.322 9.899 0 18.229 1.362 20.652 18.114h.124c35.198 117.296-43.055 172.411-100.063 185.726z" horiz-adv-x="1024"/><glyph glyph-name="logout" unicode="" d="M235.25 699.554a458.105 458.105 0 11550.266 2.479 26.947 26.947 0 01-32.283-43.224 404.21 404.21 0 10-485.43-2.156 26.947 26.947 0 11-32.552 42.9zm303.697-396.396v538.947a26.947 26.947 0 01-53.894 0V303.158a26.947 26.947 0 1153.894 0z" horiz-adv-x="1024"/><glyph glyph-name="list" unicode="" d="M965.063 822.898H729.657V896H294.229v-73.102H56.89v-939.69h910.22v939.69h-2.048zm-625.038 27.306H683.86V712.647H340.025v137.5zM921.259-70.94H102.628v847.985h191.601v-110.25h435.428v110.307h191.602V-70.884zm-122.88 587.776v-45.853H225.564v45.853h572.872zm-572.815-156.16h572.872v-45.853H225.564v45.853zm0-156.104h572.872v-45.795H225.564v45.795z" horiz-adv-x="1024"/><glyph glyph-name="profile" unicode="" d="M1128.721-90.931H103.22A103.765 103.765 0 000 12.288v725.88a103.765 103.765 0 00103.22 103.219h1022.224a103.765 103.765 0 00103.22-103.22V12.288c3.276-59.938-43.35-103.22-99.943-103.22zM103.22 788.139a51.2 51.2 0 01-49.971-49.903V12.356c0-26.624 23.347-49.97 49.971-49.97h1022.225a51.2 51.2 0 0149.903 49.97v725.811a51.2 51.2 0 01-49.903 49.903H103.22zM489.472 78.916H256.41c-46.627 0-93.253 26.624-93.253 83.217 0 53.248 43.281 73.25 73.25 89.908 33.315 16.657 43.282 23.278 43.282 43.28 0 9.968-9.967 26.625-23.28 46.627-23.347 36.59-53.247 83.217-53.247 156.467 0 103.22 69.836 173.124 166.434 173.124 96.529 0 166.502-73.25 166.502-173.124 0-76.595-30.037-123.221-53.248-156.467-13.38-16.657-23.347-33.314-23.347-46.626 0-20.003 13.312-26.624 43.281-43.281 29.97-13.312 73.25-33.315 73.25-89.908 6.622-56.661-39.936-83.285-86.562-83.285zM372.941 618.223c-69.974 0-113.255-46.558-113.255-119.808 0-59.938 23.348-96.53 46.627-129.843 16.657-23.347 30.037-46.626 30.037-73.25 0-56.662-43.35-76.596-76.664-89.908-29.969-16.657-43.28-23.279-43.28-43.28 0-23.348 20.001-30.038 40.004-30.038h233.062c16.657 0 39.936 6.69 39.936 30.037 0 20.002-13.312 26.624-43.281 39.936-33.314 13.312-76.595 33.314-76.595 89.908 0 26.624 13.312 49.97 30.037 73.25 19.934 33.314 46.558 69.905 46.558 129.843 3.345 76.595-43.281 123.221-113.186 123.221zm536.03-409.464H732.5a28.672 28.672 0 01-26.624-26.624c0-13.38 13.312-26.624 26.624-26.624h176.47a28.672 28.672 0 0126.624 26.624c0 16.59-9.967 26.624-26.624 26.624zm106.564 133.12H732.5a28.672 28.672 0 01-26.624-26.624c0-13.312 13.312-26.624 26.624-26.624h283.034a28.672 28.672 0 0126.624 26.624 28.672 28.672 0 01-26.624 26.624zm0 129.912H732.5a28.672 28.672 0 01-26.624-26.624c0-13.312 13.312-26.624 26.624-26.624h283.034a28.672 28.672 0 0126.624 26.624 26.283 26.283 0 01-26.624 26.624zm0 133.12H732.5a28.672 28.672 0 01-26.624-26.624c0-13.244 13.312-26.624 26.624-26.624h283.034a28.672 28.672 0 0126.624 26.624 28.672 28.672 0 01-26.624 26.624z" horiz-adv-x="1228"/><glyph glyph-name="account" unicode="" d="M512-128a512 512 0 100 1024 512 512 0 000-1024zm0 39.367a472.633 472.633 0 110 945.266 472.633 472.633 0 010-945.266zm125.44 471.04a109.284 109.284 0 0071.51-102.115v-62.92a109.796 109.796 0 00-110.251-109.056H425.3a109.796 109.796 0 00-110.25 109.056v62.92c0 46.648 29.81 86.584 71.566 102.115a185.458 185.458 0 00-31.061 103.709c0 95.687 70.2 173.568 156.444 173.568 86.3 0 156.444-77.881 156.444-173.568a185.458 185.458 0 00-31.004-103.709zM512 624.47c-66.674 0-120.889-62.009-120.889-138.353 0-76.345 54.215-138.411 120.889-138.411 66.674 0 120.889 62.066 120.889 138.41 0 76.289-54.215 138.354-120.889 138.354zm161.337-407.097v62.92c0 36.124-26.34 66.275-61.099 72.647A146.887 146.887 0 00512 312.548a146.773 146.773 0 00-100.238 40.39 74.24 74.24 0 01-61.099-72.646v-62.92c0-40.732 33.508-73.841 74.638-73.841H598.7c41.13 0 74.638 33.109 74.638 73.841z" horiz-adv-x="1024"/><glyph glyph-name="info" unicode="" d="M993.882 89.45L849.68 208.714v344.787C849.68 742.4 698.43 896 512.361 896c-186.006 0-337.257-153.6-337.257-342.558V208.655L30.118 89.39V42.767h303.706A179.08 179.08 0 01512-122.458 179.2 179.2 0 01690.296 42.767h303.586V89.45zM512-67.344a123.603 123.603 0 00-122.458 110.11h245.037A123.543 123.543 0 00512-67.343zM127.157 97.822l103.062 84.932v370.628c0 158.539 126.615 287.503 282.203 287.503 155.587 0 282.262-128.964 282.262-287.503V182.814l102.641-84.932-770.168-.12z" horiz-adv-x="1024"/><glyph glyph-name="config" unicode="" d="M826.14 232.22l-6.371-12.743 7.964-11.776L905.842 91.82l3.186 31.061-138.98-135.51 29.525 3.47-127.601 76.004-10.525 6.258-11.378-4.722a371.94 371.94 0 00-24.462-9.216l-13.255-4.38-2.901-13.653-27.933-131.584 23.894 19.342H408.747l23.665-18.546L398.28 48.071l-3.015 12.288-11.776 4.551a354.19 354.19 0 00-21.845 9.387l-12.175 5.689-11.32-7.282-119.808-76.8 30.15-3.015-138.979 135.51 3.641-30.436 77.938 124.359 6.883 11.036-5.233 11.833a333.369 333.369 0 00-10.013 25.202l-4.551 13.084-13.653 2.731-134.827 27.193 19.513-23.893v191.658l-18.773-23.722 141.255 33.223 12.23 2.844 4.723 11.662a312.889 312.889 0 0011.377 24.747l6.372 12.686-7.85 11.833-73.387 110.649-3.186-30.834 138.183 136.818-29.81-3.584 122.88-74.24 10.581-6.428 11.378 4.778c6.656 2.73 13.37 5.348 20.139 7.68l12.515 4.324 3.186 12.857 32.939 133.063-23.666-18.546h196.551l-23.893 19.342 28.9-135.964 2.787-13.085 12.516-4.665a348.895 348.895 0 0029.98-12.8l12.174-5.86 11.378 7.169 113.493 71.566-29.866 3.015L914.66 624.981l-3.641 30.72-76.288-119.75-6.998-10.98 5.234-11.947c3.584-8.192 6.827-16.555 9.785-25.031l4.38-12.686 13.085-3.072 134.315-31.63-18.774 23.722V272.725l19.57 23.894-141.824-28.615-12.743-2.56-4.95-12.004a334.507 334.507 0 00-9.67-21.22zm32.2 11.89l4.778-23.893 141.824 28.558 19.57 3.982V483.67l-18.773 4.438-134.372 31.573-5.575-23.723 23.04 7.965a381.61 381.61 0 01-11.207 28.729l-22.357-9.842 20.593-13.085 76.231 119.752 10.81 16.839-14.45 13.88L808.05 794.853l-13.767 13.198-16.1-10.126-113.436-71.51 12.97-20.65 10.639 21.959a401.806 401.806 0 01-34.134 14.563l-8.533-22.87 23.893 5.12-28.9 135.908-4.095 19.343H401.18l-4.55-18.546-32.996-133.12 23.722-5.803-8.02 23.04a463.894 463.894 0 01-22.927-8.76l9.443-22.529 12.573 20.879-122.766 74.296-16.27 9.842-13.483-13.369L87.723 668.9 73.5 654.79l11.094-16.668 73.386-110.65 20.31 13.483-21.732 11.037a374.987 374.987 0 01-12.97-28.388l22.584-9.216-5.632 23.723-141.255-33.223-18.773-4.437V269.596l19.57-3.982 134.826-27.193 4.893 23.894-23.04-8.079c3.413-9.784 7.282-19.399 11.491-28.842l22.244 9.898-20.65 12.914-77.938-124.359L61.44 107.18l14.108-13.71 138.98-135.51 13.88-13.54 16.271 10.468 119.865 76.8-13.198 20.48-10.297-22.073c8.135-3.811 16.44-7.395 24.803-10.581l8.818 22.699-23.666-5.86 34.134-137.671 4.55-18.546h235.407l4.096 19.342 27.933 131.527-23.894 5.064 7.794-23.154A400.498 400.498 0 01668.9 23.438l-9.387 22.471-12.516-20.935L774.6-51.029l16.1-9.615 13.369 13.085L943.104 87.95l14.564 14.221-11.378 16.896-78.109 115.883-20.252-13.653 21.845-10.81a388.53 388.53 0 0111.094 24.292l-22.528 9.33zM731.932 379.96a207.246 207.246 0 11-123.164-189.496 24.405 24.405 0 11-19.797 44.544 158.492 158.492 0 1090.567 110.876 24.405 24.405 0 1147.616-10.41c3.186 14.506 4.778 29.411 4.778 44.487z" horiz-adv-x="1024"/></font>
</defs>
</svg>
